<svg width="920" height="560" viewBox="0 0 920 560" fill="none" xmlns="http://www.w3.org/2000/svg">
  <rect width="920" height="560" rx="36" fill="url(#bg)"/>
  <g opacity="0.8">
    <circle cx="179" cy="128" r="120" fill="url(#glow1)"/>
    <circle cx="758" cy="96" r="132" fill="url(#glow2)"/>
  </g>
  <rect x="78" y="226" width="188" height="234" rx="26" fill="url(#cardLight)" stroke="rgba(255,255,255,0.32)"/>
  <rect x="104" y="256" width="138" height="78" rx="18" fill="url(#sunset)"/>
  <rect x="104" y="350" width="116" height="14" rx="7" fill="#D38BFF" fill-opacity="0.38"/>
  <rect x="104" y="374" width="90" height="14" rx="7" fill="#4B5AFF" fill-opacity="0.38"/>
  <rect x="104" y="398" width="66" height="14" rx="7" fill="#4B5AFF" fill-opacity="0.24"/>
  <g filter="url(#shadow)">
    <rect x="300" y="136" width="312" height="364" rx="30" fill="url(#centerPanel)" stroke="#2D335C"/>
    <rect x="332" y="174" width="152" height="16" rx="8" fill="#6F75FF" fill-opacity="0.75"/>
    <rect x="332" y="202" width="102" height="12" rx="6" fill="#B1B6D8" fill-opacity="0.56"/>
    <rect x="332" y="242" width="86" height="86" rx="22" fill="url(#thumb1)"/>
    <rect x="430" y="242" width="150" height="86" rx="22" fill="url(#thumb2)"/>
    <rect x="332" y="344" width="78" height="68" rx="18" fill="#635BFF"/>
    <rect x="422" y="344" width="72" height="68" rx="18" fill="#171C37" stroke="#353C68"/>
    <rect x="506" y="344" width="74" height="68" rx="18" fill="#171C37" stroke="#353C68"/>
    <rect x="332" y="432" width="248" height="12" rx="6" fill="#97A3D8" fill-opacity="0.28"/>
    <rect x="332" y="454" width="204" height="12" rx="6" fill="#97A3D8" fill-opacity="0.18"/>
  </g>
  <g filter="url(#shadowSoft)">
    <rect x="628" y="248" width="192" height="268" rx="28" fill="url(#portraitBg)" stroke="#26315E"/>
    <ellipse cx="732" cy="378" rx="54" ry="84" fill="url(#face)"/>
    <path d="M705 308C719 274 751 264 776 274C799 284 814 309 816 339C789 324 775 321 742 329C726 333 715 337 702 343C696 331 697 322 705 308Z" fill="url(#helmet)"/>
    <rect x="678" y="438" width="116" height="20" rx="10" fill="#2AD1FF" fill-opacity="0.18"/>
    <rect x="690" y="468" width="92" height="14" rx="7" fill="#F1F5FF" fill-opacity="0.2"/>
  </g>
  <defs>
    <linearGradient id="bg" x1="74" y1="28" x2="818" y2="516" gradientUnits="userSpaceOnUse">
      <stop stop-color="#201B52"/>
      <stop offset="0.44" stop-color="#120F2D"/>
      <stop offset="1" stop-color="#091322"/>
    </linearGradient>
    <radialGradient id="glow1" cx="0" cy="0" r="1" gradientUnits="userSpaceOnUse" gradientTransform="translate(179 128) rotate(90) scale(120)">
      <stop stop-color="#7168FF" stop-opacity="0.9"/>
      <stop offset="1" stop-color="#7168FF" stop-opacity="0"/>
    </radialGradient>
    <radialGradient id="glow2" cx="0" cy="0" r="1" gradientUnits="userSpaceOnUse" gradientTransform="translate(758 96) rotate(90) scale(132)">
      <stop stop-color="#2AD1FF" stop-opacity="0.65"/>
      <stop offset="1" stop-color="#2AD1FF" stop-opacity="0"/>
    </radialGradient>
    <linearGradient id="cardLight" x1="78" y1="226" x2="266" y2="460" gradientUnits="userSpaceOnUse">
      <stop stop-color="#D9F1FF"/>
      <stop offset="0.52" stop-color="#FFE5F7"/>
      <stop offset="1" stop-color="#FFF6D3"/>
    </linearGradient>
    <linearGradient id="sunset" x1="104" y1="256" x2="242" y2="334" gradientUnits="userSpaceOnUse">
      <stop stop-color="#FFB96A"/>
      <stop offset="0.54" stop-color="#FF78BC"/>
      <stop offset="1" stop-color="#7E75FF"/>
    </linearGradient>
    <linearGradient id="centerPanel" x1="300" y1="136" x2="612" y2="500" gradientUnits="userSpaceOnUse">
      <stop stop-color="#1B2245"/>
      <stop offset="1" stop-color="#0D1325"/>
    </linearGradient>
    <linearGradient id="thumb1" x1="332" y1="242" x2="418" y2="328" gradientUnits="userSpaceOnUse">
      <stop stop-color="#FF7C87"/>
      <stop offset="1" stop-color="#7F5CFF"/>
    </linearGradient>
    <linearGradient id="thumb2" x1="430" y1="242" x2="580" y2="328" gradientUnits="userSpaceOnUse">
      <stop stop-color="#3FE2BC"/>
      <stop offset="1" stop-color="#2E6BFF"/>
    </linearGradient>
    <linearGradient id="portraitBg" x1="628" y1="248" x2="820" y2="516" gradientUnits="userSpaceOnUse">
      <stop stop-color="#162458"/>
      <stop offset="1" stop-color="#05111E"/>
    </linearGradient>
    <linearGradient id="face" x1="732" y1="294" x2="732" y2="462" gradientUnits="userSpaceOnUse">
      <stop stop-color="#2B86C5"/>
      <stop offset="1" stop-color="#0B1F37"/>
    </linearGradient>
    <linearGradient id="helmet" x1="759" y1="274" x2="759" y2="343" gradientUnits="userSpaceOnUse">
      <stop stop-color="#3FE2BC"/>
      <stop offset="1" stop-color="#194F8C"/>
    </linearGradient>
    <filter id="shadow" x="276" y="120" width="360" height="412" filterUnits="userSpaceOnUse" color-interpolation-filters="sRGB">
      <feDropShadow dx="0" dy="10" stdDeviation="12" flood-color="#020616" flood-opacity="0.44"/>
    </filter>
    <filter id="shadowSoft" x="612" y="234" width="224" height="300" filterUnits="userSpaceOnUse" color-interpolation-filters="sRGB">
      <feDropShadow dx="0" dy="12" stdDeviation="12" flood-color="#020616" flood-opacity="0.4"/>
    </filter>
  </defs>
</svg>
