<svg width="640" height="420" viewBox="0 0 640 420" fill="none" xmlns="http://www.w3.org/2000/svg">
  <rect width="640" height="420" rx="28" fill="url(#bg)"/>
  <rect x="32" y="34" width="576" height="116" rx="24" fill="#11182D" stroke="#283250"/>
  <rect x="32" y="174" width="272" height="214" rx="24" fill="#11182D" stroke="#283250"/>
  <rect x="326" y="174" width="282" height="214" rx="24" fill="#11182D" stroke="#283250"/>
  <rect x="58" y="66" width="180" height="16" rx="8" fill="#6A75A1"/>
  <g opacity="0.9">
    <rect x="58" y="102" width="16" height="30" rx="8" fill="#6A61FF"/>
    <rect x="84" y="88" width="16" height="58" rx="8" fill="#4AA7FF"/>
    <rect x="110" y="78" width="16" height="78" rx="8" fill="#6A61FF"/>
    <rect x="136" y="92" width="16" height="50" rx="8" fill="#4AA7FF"/>
    <rect x="162" y="70" width="16" height="94" rx="8" fill="#6A61FF"/>
    <rect x="188" y="86" width="16" height="62" rx="8" fill="#4AA7FF"/>
  </g>
  <circle cx="170" cy="282" r="58" fill="url(#mic)"/>
  <rect x="108" y="338" width="124" height="16" rx="8" fill="#5B668C"/>
  <rect x="350" y="218" width="230" height="18" rx="9" fill="#6A61FF"/>
  <rect x="350" y="252" width="182" height="14" rx="7" fill="#6D77A1"/>
  <rect x="350" y="286" width="206" height="14" rx="7" fill="#6D77A1"/>
  <rect x="350" y="320" width="178" height="46" rx="16" fill="#151E35"/>
  <defs>
    <linearGradient id="bg" x1="48" y1="28" x2="584" y2="388" gradientUnits="userSpaceOnUse">
      <stop stop-color="#161D38"/>
      <stop offset="1" stop-color="#09101D"/>
    </linearGradient>
    <linearGradient id="mic" x1="170" y1="224" x2="170" y2="340" gradientUnits="userSpaceOnUse">
      <stop stop-color="#42E0BF"/>
      <stop offset="1" stop-color="#2840AA"/>
    </linearGradient>
  </defs>
</svg>
