<svg width="640" height="420" viewBox="0 0 640 420" fill="none" xmlns="http://www.w3.org/2000/svg">
  <rect width="640" height="420" rx="28" fill="url(#bg)"/>
  <rect x="24" y="24" width="164" height="372" rx="22" fill="#0E1425" stroke="#242B44"/>
  <rect x="212" y="24" width="404" height="372" rx="22" fill="#10182D" stroke="#242B44"/>
  <rect x="46" y="54" width="120" height="14" rx="7" fill="#68739A"/>
  <rect x="46" y="92" width="120" height="54" rx="16" fill="#171F37"/>
  <rect x="46" y="158" width="120" height="54" rx="16" fill="#171F37"/>
  <rect x="46" y="224" width="120" height="54" rx="16" fill="#171F37"/>
  <rect x="240" y="64" width="164" height="20" rx="10" fill="#6A61FF"/>
  <rect x="240" y="114" width="230" height="76" rx="20" fill="#171F37"/>
  <rect x="348" y="206" width="232" height="70" rx="20" fill="#2C2571"/>
  <rect x="240" y="292" width="194" height="68" rx="20" fill="#171F37"/>
  <rect x="240" y="372" width="340" height="18" rx="9" fill="#2B3657"/>
  <defs>
    <linearGradient id="bg" x1="46" y1="20" x2="572" y2="390" gradientUnits="userSpaceOnUse">
      <stop stop-color="#171D39"/>
      <stop offset="1" stop-color="#0A0F1D"/>
    </linearGradient>
  </defs>
</svg>
