<?xml version="1.0" encoding="utf-8"?>
<!DOCTYPE svg PUBLIC "-//W3C//DTD SVG 1.0//EN" "http://www.w3.org/TR/2001/REC-SVG-20010904/DTD/svg10.dtd">
<svg xmlns="http://www.w3.org/2000/svg" xml:space="preserve" xmlns:xlink="http://www.w3.org/1999/xlink" width="212" height="212" viewBox="0 0 212 212">
<desc></desc>
<rect width="212" height="212" fill="#ffffff" cx="0" cy="0" />
<defs>
<rect id="p" width="4" height="4" />
</defs>
<g fill="#000000">
<use x="8" y="8" xlink:href="#p" />
<use x="12" y="8" xlink:href="#p" />
<use x="16" y="8" xlink:href="#p" />
<use x="20" y="8" xlink:href="#p" />
<use x="24" y="8" xlink:href="#p" />
<use x="28" y="8" xlink:href="#p" />
<use x="32" y="8" xlink:href="#p" />
<use x="40" y="8" xlink:href="#p" />
<use x="44" y="8" xlink:href="#p" />
<use x="48" y="8" xlink:href="#p" />
<use x="56" y="8" xlink:href="#p" />
<use x="60" y="8" xlink:href="#p" />
<use x="72" y="8" xlink:href="#p" />
<use x="96" y="8" xlink:href="#p" />
<use x="100" y="8" xlink:href="#p" />
<use x="104" y="8" xlink:href="#p" />
<use x="124" y="8" xlink:href="#p" />
<use x="128" y="8" xlink:href="#p" />
<use x="132" y="8" xlink:href="#p" />
<use x="140" y="8" xlink:href="#p" />
<use x="144" y="8" xlink:href="#p" />
<use x="152" y="8" xlink:href="#p" />
<use x="156" y="8" xlink:href="#p" />
<use x="168" y="8" xlink:href="#p" />
<use x="176" y="8" xlink:href="#p" />
<use x="180" y="8" xlink:href="#p" />
<use x="184" y="8" xlink:href="#p" />
<use x="188" y="8" xlink:href="#p" />
<use x="192" y="8" xlink:href="#p" />
<use x="196" y="8" xlink:href="#p" />
<use x="200" y="8" xlink:href="#p" />
<use x="8" y="12" xlink:href="#p" />
<use x="32" y="12" xlink:href="#p" />
<use x="40" y="12" xlink:href="#p" />
<use x="44" y="12" xlink:href="#p" />
<use x="56" y="12" xlink:href="#p" />
<use x="76" y="12" xlink:href="#p" />
<use x="88" y="12" xlink:href="#p" />
<use x="108" y="12" xlink:href="#p" />
<use x="116" y="12" xlink:href="#p" />
<use x="120" y="12" xlink:href="#p" />
<use x="124" y="12" xlink:href="#p" />
<use x="128" y="12" xlink:href="#p" />
<use x="136" y="12" xlink:href="#p" />
<use x="148" y="12" xlink:href="#p" />
<use x="160" y="12" xlink:href="#p" />
<use x="164" y="12" xlink:href="#p" />
<use x="168" y="12" xlink:href="#p" />
<use x="176" y="12" xlink:href="#p" />
<use x="200" y="12" xlink:href="#p" />
<use x="8" y="16" xlink:href="#p" />
<use x="16" y="16" xlink:href="#p" />
<use x="20" y="16" xlink:href="#p" />
<use x="24" y="16" xlink:href="#p" />
<use x="32" y="16" xlink:href="#p" />
<use x="40" y="16" xlink:href="#p" />
<use x="44" y="16" xlink:href="#p" />
<use x="48" y="16" xlink:href="#p" />
<use x="52" y="16" xlink:href="#p" />
<use x="56" y="16" xlink:href="#p" />
<use x="64" y="16" xlink:href="#p" />
<use x="68" y="16" xlink:href="#p" />
<use x="76" y="16" xlink:href="#p" />
<use x="80" y="16" xlink:href="#p" />
<use x="84" y="16" xlink:href="#p" />
<use x="96" y="16" xlink:href="#p" />
<use x="100" y="16" xlink:href="#p" />
<use x="104" y="16" xlink:href="#p" />
<use x="116" y="16" xlink:href="#p" />
<use x="120" y="16" xlink:href="#p" />
<use x="124" y="16" xlink:href="#p" />
<use x="136" y="16" xlink:href="#p" />
<use x="144" y="16" xlink:href="#p" />
<use x="148" y="16" xlink:href="#p" />
<use x="164" y="16" xlink:href="#p" />
<use x="168" y="16" xlink:href="#p" />
<use x="176" y="16" xlink:href="#p" />
<use x="184" y="16" xlink:href="#p" />
<use x="188" y="16" xlink:href="#p" />
<use x="192" y="16" xlink:href="#p" />
<use x="200" y="16" xlink:href="#p" />
<use x="8" y="20" xlink:href="#p" />
<use x="16" y="20" xlink:href="#p" />
<use x="20" y="20" xlink:href="#p" />
<use x="24" y="20" xlink:href="#p" />
<use x="32" y="20" xlink:href="#p" />
<use x="40" y="20" xlink:href="#p" />
<use x="44" y="20" xlink:href="#p" />
<use x="48" y="20" xlink:href="#p" />
<use x="56" y="20" xlink:href="#p" />
<use x="60" y="20" xlink:href="#p" />
<use x="64" y="20" xlink:href="#p" />
<use x="72" y="20" xlink:href="#p" />
<use x="80" y="20" xlink:href="#p" />
<use x="84" y="20" xlink:href="#p" />
<use x="92" y="20" xlink:href="#p" />
<use x="96" y="20" xlink:href="#p" />
<use x="116" y="20" xlink:href="#p" />
<use x="120" y="20" xlink:href="#p" />
<use x="124" y="20" xlink:href="#p" />
<use x="136" y="20" xlink:href="#p" />
<use x="140" y="20" xlink:href="#p" />
<use x="144" y="20" xlink:href="#p" />
<use x="156" y="20" xlink:href="#p" />
<use x="164" y="20" xlink:href="#p" />
<use x="176" y="20" xlink:href="#p" />
<use x="184" y="20" xlink:href="#p" />
<use x="188" y="20" xlink:href="#p" />
<use x="192" y="20" xlink:href="#p" />
<use x="200" y="20" xlink:href="#p" />
<use x="8" y="24" xlink:href="#p" />
<use x="16" y="24" xlink:href="#p" />
<use x="20" y="24" xlink:href="#p" />
<use x="24" y="24" xlink:href="#p" />
<use x="32" y="24" xlink:href="#p" />
<use x="44" y="24" xlink:href="#p" />
<use x="60" y="24" xlink:href="#p" />
<use x="64" y="24" xlink:href="#p" />
<use x="80" y="24" xlink:href="#p" />
<use x="84" y="24" xlink:href="#p" />
<use x="88" y="24" xlink:href="#p" />
<use x="96" y="24" xlink:href="#p" />
<use x="100" y="24" xlink:href="#p" />
<use x="104" y="24" xlink:href="#p" />
<use x="108" y="24" xlink:href="#p" />
<use x="112" y="24" xlink:href="#p" />
<use x="124" y="24" xlink:href="#p" />
<use x="136" y="24" xlink:href="#p" />
<use x="140" y="24" xlink:href="#p" />
<use x="176" y="24" xlink:href="#p" />
<use x="184" y="24" xlink:href="#p" />
<use x="188" y="24" xlink:href="#p" />
<use x="192" y="24" xlink:href="#p" />
<use x="200" y="24" xlink:href="#p" />
<use x="8" y="28" xlink:href="#p" />
<use x="32" y="28" xlink:href="#p" />
<use x="40" y="28" xlink:href="#p" />
<use x="44" y="28" xlink:href="#p" />
<use x="52" y="28" xlink:href="#p" />
<use x="68" y="28" xlink:href="#p" />
<use x="76" y="28" xlink:href="#p" />
<use x="80" y="28" xlink:href="#p" />
<use x="88" y="28" xlink:href="#p" />
<use x="96" y="28" xlink:href="#p" />
<use x="112" y="28" xlink:href="#p" />
<use x="116" y="28" xlink:href="#p" />
<use x="120" y="28" xlink:href="#p" />
<use x="128" y="28" xlink:href="#p" />
<use x="136" y="28" xlink:href="#p" />
<use x="144" y="28" xlink:href="#p" />
<use x="156" y="28" xlink:href="#p" />
<use x="160" y="28" xlink:href="#p" />
<use x="176" y="28" xlink:href="#p" />
<use x="200" y="28" xlink:href="#p" />
<use x="8" y="32" xlink:href="#p" />
<use x="12" y="32" xlink:href="#p" />
<use x="16" y="32" xlink:href="#p" />
<use x="20" y="32" xlink:href="#p" />
<use x="24" y="32" xlink:href="#p" />
<use x="28" y="32" xlink:href="#p" />
<use x="32" y="32" xlink:href="#p" />
<use x="40" y="32" xlink:href="#p" />
<use x="48" y="32" xlink:href="#p" />
<use x="56" y="32" xlink:href="#p" />
<use x="64" y="32" xlink:href="#p" />
<use x="72" y="32" xlink:href="#p" />
<use x="80" y="32" xlink:href="#p" />
<use x="88" y="32" xlink:href="#p" />
<use x="96" y="32" xlink:href="#p" />
<use x="104" y="32" xlink:href="#p" />
<use x="112" y="32" xlink:href="#p" />
<use x="120" y="32" xlink:href="#p" />
<use x="128" y="32" xlink:href="#p" />
<use x="136" y="32" xlink:href="#p" />
<use x="144" y="32" xlink:href="#p" />
<use x="152" y="32" xlink:href="#p" />
<use x="160" y="32" xlink:href="#p" />
<use x="168" y="32" xlink:href="#p" />
<use x="176" y="32" xlink:href="#p" />
<use x="180" y="32" xlink:href="#p" />
<use x="184" y="32" xlink:href="#p" />
<use x="188" y="32" xlink:href="#p" />
<use x="192" y="32" xlink:href="#p" />
<use x="196" y="32" xlink:href="#p" />
<use x="200" y="32" xlink:href="#p" />
<use x="52" y="36" xlink:href="#p" />
<use x="64" y="36" xlink:href="#p" />
<use x="68" y="36" xlink:href="#p" />
<use x="72" y="36" xlink:href="#p" />
<use x="92" y="36" xlink:href="#p" />
<use x="96" y="36" xlink:href="#p" />
<use x="112" y="36" xlink:href="#p" />
<use x="120" y="36" xlink:href="#p" />
<use x="128" y="36" xlink:href="#p" />
<use x="136" y="36" xlink:href="#p" />
<use x="140" y="36" xlink:href="#p" />
<use x="156" y="36" xlink:href="#p" />
<use x="160" y="36" xlink:href="#p" />
<use x="164" y="36" xlink:href="#p" />
<use x="8" y="40" xlink:href="#p" />
<use x="12" y="40" xlink:href="#p" />
<use x="24" y="40" xlink:href="#p" />
<use x="28" y="40" xlink:href="#p" />
<use x="32" y="40" xlink:href="#p" />
<use x="44" y="40" xlink:href="#p" />
<use x="56" y="40" xlink:href="#p" />
<use x="64" y="40" xlink:href="#p" />
<use x="72" y="40" xlink:href="#p" />
<use x="76" y="40" xlink:href="#p" />
<use x="84" y="40" xlink:href="#p" />
<use x="88" y="40" xlink:href="#p" />
<use x="96" y="40" xlink:href="#p" />
<use x="100" y="40" xlink:href="#p" />
<use x="104" y="40" xlink:href="#p" />
<use x="108" y="40" xlink:href="#p" />
<use x="112" y="40" xlink:href="#p" />
<use x="116" y="40" xlink:href="#p" />
<use x="148" y="40" xlink:href="#p" />
<use x="156" y="40" xlink:href="#p" />
<use x="164" y="40" xlink:href="#p" />
<use x="180" y="40" xlink:href="#p" />
<use x="188" y="40" xlink:href="#p" />
<use x="192" y="40" xlink:href="#p" />
<use x="196" y="40" xlink:href="#p" />
<use x="200" y="40" xlink:href="#p" />
<use x="8" y="44" xlink:href="#p" />
<use x="16" y="44" xlink:href="#p" />
<use x="20" y="44" xlink:href="#p" />
<use x="24" y="44" xlink:href="#p" />
<use x="28" y="44" xlink:href="#p" />
<use x="40" y="44" xlink:href="#p" />
<use x="48" y="44" xlink:href="#p" />
<use x="52" y="44" xlink:href="#p" />
<use x="56" y="44" xlink:href="#p" />
<use x="60" y="44" xlink:href="#p" />
<use x="68" y="44" xlink:href="#p" />
<use x="72" y="44" xlink:href="#p" />
<use x="88" y="44" xlink:href="#p" />
<use x="92" y="44" xlink:href="#p" />
<use x="96" y="44" xlink:href="#p" />
<use x="120" y="44" xlink:href="#p" />
<use x="124" y="44" xlink:href="#p" />
<use x="132" y="44" xlink:href="#p" />
<use x="140" y="44" xlink:href="#p" />
<use x="164" y="44" xlink:href="#p" />
<use x="172" y="44" xlink:href="#p" />
<use x="180" y="44" xlink:href="#p" />
<use x="200" y="44" xlink:href="#p" />
<use x="8" y="48" xlink:href="#p" />
<use x="12" y="48" xlink:href="#p" />
<use x="20" y="48" xlink:href="#p" />
<use x="32" y="48" xlink:href="#p" />
<use x="40" y="48" xlink:href="#p" />
<use x="48" y="48" xlink:href="#p" />
<use x="52" y="48" xlink:href="#p" />
<use x="72" y="48" xlink:href="#p" />
<use x="76" y="48" xlink:href="#p" />
<use x="84" y="48" xlink:href="#p" />
<use x="88" y="48" xlink:href="#p" />
<use x="96" y="48" xlink:href="#p" />
<use x="100" y="48" xlink:href="#p" />
<use x="116" y="48" xlink:href="#p" />
<use x="124" y="48" xlink:href="#p" />
<use x="128" y="48" xlink:href="#p" />
<use x="136" y="48" xlink:href="#p" />
<use x="144" y="48" xlink:href="#p" />
<use x="148" y="48" xlink:href="#p" />
<use x="152" y="48" xlink:href="#p" />
<use x="160" y="48" xlink:href="#p" />
<use x="164" y="48" xlink:href="#p" />
<use x="180" y="48" xlink:href="#p" />
<use x="188" y="48" xlink:href="#p" />
<use x="192" y="48" xlink:href="#p" />
<use x="196" y="48" xlink:href="#p" />
<use x="200" y="48" xlink:href="#p" />
<use x="12" y="52" xlink:href="#p" />
<use x="16" y="52" xlink:href="#p" />
<use x="20" y="52" xlink:href="#p" />
<use x="28" y="52" xlink:href="#p" />
<use x="40" y="52" xlink:href="#p" />
<use x="56" y="52" xlink:href="#p" />
<use x="60" y="52" xlink:href="#p" />
<use x="72" y="52" xlink:href="#p" />
<use x="84" y="52" xlink:href="#p" />
<use x="92" y="52" xlink:href="#p" />
<use x="96" y="52" xlink:href="#p" />
<use x="100" y="52" xlink:href="#p" />
<use x="124" y="52" xlink:href="#p" />
<use x="140" y="52" xlink:href="#p" />
<use x="144" y="52" xlink:href="#p" />
<use x="148" y="52" xlink:href="#p" />
<use x="156" y="52" xlink:href="#p" />
<use x="160" y="52" xlink:href="#p" />
<use x="164" y="52" xlink:href="#p" />
<use x="172" y="52" xlink:href="#p" />
<use x="176" y="52" xlink:href="#p" />
<use x="184" y="52" xlink:href="#p" />
<use x="188" y="52" xlink:href="#p" />
<use x="192" y="52" xlink:href="#p" />
<use x="196" y="52" xlink:href="#p" />
<use x="8" y="56" xlink:href="#p" />
<use x="16" y="56" xlink:href="#p" />
<use x="24" y="56" xlink:href="#p" />
<use x="28" y="56" xlink:href="#p" />
<use x="32" y="56" xlink:href="#p" />
<use x="36" y="56" xlink:href="#p" />
<use x="48" y="56" xlink:href="#p" />
<use x="60" y="56" xlink:href="#p" />
<use x="64" y="56" xlink:href="#p" />
<use x="80" y="56" xlink:href="#p" />
<use x="84" y="56" xlink:href="#p" />
<use x="88" y="56" xlink:href="#p" />
<use x="96" y="56" xlink:href="#p" />
<use x="100" y="56" xlink:href="#p" />
<use x="104" y="56" xlink:href="#p" />
<use x="108" y="56" xlink:href="#p" />
<use x="112" y="56" xlink:href="#p" />
<use x="116" y="56" xlink:href="#p" />
<use x="120" y="56" xlink:href="#p" />
<use x="128" y="56" xlink:href="#p" />
<use x="132" y="56" xlink:href="#p" />
<use x="140" y="56" xlink:href="#p" />
<use x="152" y="56" xlink:href="#p" />
<use x="156" y="56" xlink:href="#p" />
<use x="168" y="56" xlink:href="#p" />
<use x="172" y="56" xlink:href="#p" />
<use x="176" y="56" xlink:href="#p" />
<use x="184" y="56" xlink:href="#p" />
<use x="192" y="56" xlink:href="#p" />
<use x="12" y="60" xlink:href="#p" />
<use x="16" y="60" xlink:href="#p" />
<use x="36" y="60" xlink:href="#p" />
<use x="40" y="60" xlink:href="#p" />
<use x="44" y="60" xlink:href="#p" />
<use x="48" y="60" xlink:href="#p" />
<use x="64" y="60" xlink:href="#p" />
<use x="68" y="60" xlink:href="#p" />
<use x="72" y="60" xlink:href="#p" />
<use x="76" y="60" xlink:href="#p" />
<use x="80" y="60" xlink:href="#p" />
<use x="92" y="60" xlink:href="#p" />
<use x="96" y="60" xlink:href="#p" />
<use x="100" y="60" xlink:href="#p" />
<use x="104" y="60" xlink:href="#p" />
<use x="120" y="60" xlink:href="#p" />
<use x="140" y="60" xlink:href="#p" />
<use x="148" y="60" xlink:href="#p" />
<use x="152" y="60" xlink:href="#p" />
<use x="160" y="60" xlink:href="#p" />
<use x="164" y="60" xlink:href="#p" />
<use x="172" y="60" xlink:href="#p" />
<use x="176" y="60" xlink:href="#p" />
<use x="180" y="60" xlink:href="#p" />
<use x="188" y="60" xlink:href="#p" />
<use x="192" y="60" xlink:href="#p" />
<use x="12" y="64" xlink:href="#p" />
<use x="32" y="64" xlink:href="#p" />
<use x="48" y="64" xlink:href="#p" />
<use x="60" y="64" xlink:href="#p" />
<use x="64" y="64" xlink:href="#p" />
<use x="68" y="64" xlink:href="#p" />
<use x="80" y="64" xlink:href="#p" />
<use x="88" y="64" xlink:href="#p" />
<use x="92" y="64" xlink:href="#p" />
<use x="100" y="64" xlink:href="#p" />
<use x="108" y="64" xlink:href="#p" />
<use x="116" y="64" xlink:href="#p" />
<use x="124" y="64" xlink:href="#p" />
<use x="132" y="64" xlink:href="#p" />
<use x="136" y="64" xlink:href="#p" />
<use x="160" y="64" xlink:href="#p" />
<use x="168" y="64" xlink:href="#p" />
<use x="172" y="64" xlink:href="#p" />
<use x="176" y="64" xlink:href="#p" />
<use x="180" y="64" xlink:href="#p" />
<use x="188" y="64" xlink:href="#p" />
<use x="196" y="64" xlink:href="#p" />
<use x="8" y="68" xlink:href="#p" />
<use x="20" y="68" xlink:href="#p" />
<use x="24" y="68" xlink:href="#p" />
<use x="40" y="68" xlink:href="#p" />
<use x="64" y="68" xlink:href="#p" />
<use x="84" y="68" xlink:href="#p" />
<use x="88" y="68" xlink:href="#p" />
<use x="100" y="68" xlink:href="#p" />
<use x="104" y="68" xlink:href="#p" />
<use x="108" y="68" xlink:href="#p" />
<use x="112" y="68" xlink:href="#p" />
<use x="116" y="68" xlink:href="#p" />
<use x="120" y="68" xlink:href="#p" />
<use x="128" y="68" xlink:href="#p" />
<use x="136" y="68" xlink:href="#p" />
<use x="148" y="68" xlink:href="#p" />
<use x="156" y="68" xlink:href="#p" />
<use x="160" y="68" xlink:href="#p" />
<use x="176" y="68" xlink:href="#p" />
<use x="192" y="68" xlink:href="#p" />
<use x="196" y="68" xlink:href="#p" />
<use x="200" y="68" xlink:href="#p" />
<use x="16" y="72" xlink:href="#p" />
<use x="28" y="72" xlink:href="#p" />
<use x="32" y="72" xlink:href="#p" />
<use x="44" y="72" xlink:href="#p" />
<use x="52" y="72" xlink:href="#p" />
<use x="60" y="72" xlink:href="#p" />
<use x="64" y="72" xlink:href="#p" />
<use x="84" y="72" xlink:href="#p" />
<use x="88" y="72" xlink:href="#p" />
<use x="100" y="72" xlink:href="#p" />
<use x="104" y="72" xlink:href="#p" />
<use x="116" y="72" xlink:href="#p" />
<use x="120" y="72" xlink:href="#p" />
<use x="128" y="72" xlink:href="#p" />
<use x="144" y="72" xlink:href="#p" />
<use x="148" y="72" xlink:href="#p" />
<use x="156" y="72" xlink:href="#p" />
<use x="160" y="72" xlink:href="#p" />
<use x="192" y="72" xlink:href="#p" />
<use x="196" y="72" xlink:href="#p" />
<use x="200" y="72" xlink:href="#p" />
<use x="12" y="76" xlink:href="#p" />
<use x="40" y="76" xlink:href="#p" />
<use x="44" y="76" xlink:href="#p" />
<use x="56" y="76" xlink:href="#p" />
<use x="60" y="76" xlink:href="#p" />
<use x="64" y="76" xlink:href="#p" />
<use x="72" y="76" xlink:href="#p" />
<use x="80" y="76" xlink:href="#p" />
<use x="84" y="76" xlink:href="#p" />
<use x="88" y="76" xlink:href="#p" />
<use x="92" y="76" xlink:href="#p" />
<use x="96" y="76" xlink:href="#p" />
<use x="124" y="76" xlink:href="#p" />
<use x="132" y="76" xlink:href="#p" />
<use x="144" y="76" xlink:href="#p" />
<use x="164" y="76" xlink:href="#p" />
<use x="168" y="76" xlink:href="#p" />
<use x="172" y="76" xlink:href="#p" />
<use x="180" y="76" xlink:href="#p" />
<use x="200" y="76" xlink:href="#p" />
<use x="8" y="80" xlink:href="#p" />
<use x="24" y="80" xlink:href="#p" />
<use x="28" y="80" xlink:href="#p" />
<use x="32" y="80" xlink:href="#p" />
<use x="40" y="80" xlink:href="#p" />
<use x="52" y="80" xlink:href="#p" />
<use x="56" y="80" xlink:href="#p" />
<use x="60" y="80" xlink:href="#p" />
<use x="64" y="80" xlink:href="#p" />
<use x="68" y="80" xlink:href="#p" />
<use x="80" y="80" xlink:href="#p" />
<use x="88" y="80" xlink:href="#p" />
<use x="92" y="80" xlink:href="#p" />
<use x="96" y="80" xlink:href="#p" />
<use x="100" y="80" xlink:href="#p" />
<use x="104" y="80" xlink:href="#p" />
<use x="108" y="80" xlink:href="#p" />
<use x="116" y="80" xlink:href="#p" />
<use x="132" y="80" xlink:href="#p" />
<use x="136" y="80" xlink:href="#p" />
<use x="140" y="80" xlink:href="#p" />
<use x="156" y="80" xlink:href="#p" />
<use x="164" y="80" xlink:href="#p" />
<use x="184" y="80" xlink:href="#p" />
<use x="196" y="80" xlink:href="#p" />
<use x="8" y="84" xlink:href="#p" />
<use x="16" y="84" xlink:href="#p" />
<use x="28" y="84" xlink:href="#p" />
<use x="36" y="84" xlink:href="#p" />
<use x="44" y="84" xlink:href="#p" />
<use x="48" y="84" xlink:href="#p" />
<use x="64" y="84" xlink:href="#p" />
<use x="76" y="84" xlink:href="#p" />
<use x="80" y="84" xlink:href="#p" />
<use x="84" y="84" xlink:href="#p" />
<use x="88" y="84" xlink:href="#p" />
<use x="92" y="84" xlink:href="#p" />
<use x="100" y="84" xlink:href="#p" />
<use x="116" y="84" xlink:href="#p" />
<use x="120" y="84" xlink:href="#p" />
<use x="124" y="84" xlink:href="#p" />
<use x="136" y="84" xlink:href="#p" />
<use x="144" y="84" xlink:href="#p" />
<use x="148" y="84" xlink:href="#p" />
<use x="152" y="84" xlink:href="#p" />
<use x="160" y="84" xlink:href="#p" />
<use x="168" y="84" xlink:href="#p" />
<use x="172" y="84" xlink:href="#p" />
<use x="180" y="84" xlink:href="#p" />
<use x="184" y="84" xlink:href="#p" />
<use x="188" y="84" xlink:href="#p" />
<use x="192" y="84" xlink:href="#p" />
<use x="196" y="84" xlink:href="#p" />
<use x="200" y="84" xlink:href="#p" />
<use x="8" y="88" xlink:href="#p" />
<use x="12" y="88" xlink:href="#p" />
<use x="28" y="88" xlink:href="#p" />
<use x="32" y="88" xlink:href="#p" />
<use x="40" y="88" xlink:href="#p" />
<use x="56" y="88" xlink:href="#p" />
<use x="68" y="88" xlink:href="#p" />
<use x="76" y="88" xlink:href="#p" />
<use x="88" y="88" xlink:href="#p" />
<use x="96" y="88" xlink:href="#p" />
<use x="100" y="88" xlink:href="#p" />
<use x="108" y="88" xlink:href="#p" />
<use x="112" y="88" xlink:href="#p" />
<use x="128" y="88" xlink:href="#p" />
<use x="136" y="88" xlink:href="#p" />
<use x="148" y="88" xlink:href="#p" />
<use x="152" y="88" xlink:href="#p" />
<use x="160" y="88" xlink:href="#p" />
<use x="168" y="88" xlink:href="#p" />
<use x="172" y="88" xlink:href="#p" />
<use x="184" y="88" xlink:href="#p" />
<use x="188" y="88" xlink:href="#p" />
<use x="192" y="88" xlink:href="#p" />
<use x="200" y="88" xlink:href="#p" />
<use x="24" y="92" xlink:href="#p" />
<use x="36" y="92" xlink:href="#p" />
<use x="40" y="92" xlink:href="#p" />
<use x="48" y="92" xlink:href="#p" />
<use x="52" y="92" xlink:href="#p" />
<use x="56" y="92" xlink:href="#p" />
<use x="60" y="92" xlink:href="#p" />
<use x="64" y="92" xlink:href="#p" />
<use x="80" y="92" xlink:href="#p" />
<use x="84" y="92" xlink:href="#p" />
<use x="88" y="92" xlink:href="#p" />
<use x="100" y="92" xlink:href="#p" />
<use x="124" y="92" xlink:href="#p" />
<use x="132" y="92" xlink:href="#p" />
<use x="136" y="92" xlink:href="#p" />
<use x="140" y="92" xlink:href="#p" />
<use x="160" y="92" xlink:href="#p" />
<use x="164" y="92" xlink:href="#p" />
<use x="172" y="92" xlink:href="#p" />
<use x="176" y="92" xlink:href="#p" />
<use x="180" y="92" xlink:href="#p" />
<use x="188" y="92" xlink:href="#p" />
<use x="192" y="92" xlink:href="#p" />
<use x="196" y="92" xlink:href="#p" />
<use x="200" y="92" xlink:href="#p" />
<use x="16" y="96" xlink:href="#p" />
<use x="20" y="96" xlink:href="#p" />
<use x="24" y="96" xlink:href="#p" />
<use x="28" y="96" xlink:href="#p" />
<use x="32" y="96" xlink:href="#p" />
<use x="36" y="96" xlink:href="#p" />
<use x="40" y="96" xlink:href="#p" />
<use x="44" y="96" xlink:href="#p" />
<use x="52" y="96" xlink:href="#p" />
<use x="60" y="96" xlink:href="#p" />
<use x="64" y="96" xlink:href="#p" />
<use x="72" y="96" xlink:href="#p" />
<use x="80" y="96" xlink:href="#p" />
<use x="84" y="96" xlink:href="#p" />
<use x="92" y="96" xlink:href="#p" />
<use x="96" y="96" xlink:href="#p" />
<use x="100" y="96" xlink:href="#p" />
<use x="104" y="96" xlink:href="#p" />
<use x="108" y="96" xlink:href="#p" />
<use x="112" y="96" xlink:href="#p" />
<use x="120" y="96" xlink:href="#p" />
<use x="124" y="96" xlink:href="#p" />
<use x="132" y="96" xlink:href="#p" />
<use x="136" y="96" xlink:href="#p" />
<use x="140" y="96" xlink:href="#p" />
<use x="156" y="96" xlink:href="#p" />
<use x="160" y="96" xlink:href="#p" />
<use x="164" y="96" xlink:href="#p" />
<use x="168" y="96" xlink:href="#p" />
<use x="172" y="96" xlink:href="#p" />
<use x="176" y="96" xlink:href="#p" />
<use x="180" y="96" xlink:href="#p" />
<use x="184" y="96" xlink:href="#p" />
<use x="188" y="96" xlink:href="#p" />
<use x="16" y="100" xlink:href="#p" />
<use x="24" y="100" xlink:href="#p" />
<use x="40" y="100" xlink:href="#p" />
<use x="44" y="100" xlink:href="#p" />
<use x="52" y="100" xlink:href="#p" />
<use x="56" y="100" xlink:href="#p" />
<use x="64" y="100" xlink:href="#p" />
<use x="68" y="100" xlink:href="#p" />
<use x="72" y="100" xlink:href="#p" />
<use x="96" y="100" xlink:href="#p" />
<use x="112" y="100" xlink:href="#p" />
<use x="116" y="100" xlink:href="#p" />
<use x="120" y="100" xlink:href="#p" />
<use x="124" y="100" xlink:href="#p" />
<use x="132" y="100" xlink:href="#p" />
<use x="144" y="100" xlink:href="#p" />
<use x="164" y="100" xlink:href="#p" />
<use x="168" y="100" xlink:href="#p" />
<use x="184" y="100" xlink:href="#p" />
<use x="188" y="100" xlink:href="#p" />
<use x="192" y="100" xlink:href="#p" />
<use x="196" y="100" xlink:href="#p" />
<use x="16" y="104" xlink:href="#p" />
<use x="20" y="104" xlink:href="#p" />
<use x="24" y="104" xlink:href="#p" />
<use x="32" y="104" xlink:href="#p" />
<use x="40" y="104" xlink:href="#p" />
<use x="44" y="104" xlink:href="#p" />
<use x="48" y="104" xlink:href="#p" />
<use x="64" y="104" xlink:href="#p" />
<use x="72" y="104" xlink:href="#p" />
<use x="76" y="104" xlink:href="#p" />
<use x="84" y="104" xlink:href="#p" />
<use x="88" y="104" xlink:href="#p" />
<use x="96" y="104" xlink:href="#p" />
<use x="104" y="104" xlink:href="#p" />
<use x="112" y="104" xlink:href="#p" />
<use x="116" y="104" xlink:href="#p" />
<use x="120" y="104" xlink:href="#p" />
<use x="148" y="104" xlink:href="#p" />
<use x="156" y="104" xlink:href="#p" />
<use x="164" y="104" xlink:href="#p" />
<use x="168" y="104" xlink:href="#p" />
<use x="176" y="104" xlink:href="#p" />
<use x="184" y="104" xlink:href="#p" />
<use x="188" y="104" xlink:href="#p" />
<use x="192" y="104" xlink:href="#p" />
<use x="196" y="104" xlink:href="#p" />
<use x="200" y="104" xlink:href="#p" />
<use x="12" y="108" xlink:href="#p" />
<use x="16" y="108" xlink:href="#p" />
<use x="20" y="108" xlink:href="#p" />
<use x="24" y="108" xlink:href="#p" />
<use x="40" y="108" xlink:href="#p" />
<use x="44" y="108" xlink:href="#p" />
<use x="48" y="108" xlink:href="#p" />
<use x="56" y="108" xlink:href="#p" />
<use x="60" y="108" xlink:href="#p" />
<use x="64" y="108" xlink:href="#p" />
<use x="68" y="108" xlink:href="#p" />
<use x="84" y="108" xlink:href="#p" />
<use x="96" y="108" xlink:href="#p" />
<use x="112" y="108" xlink:href="#p" />
<use x="120" y="108" xlink:href="#p" />
<use x="124" y="108" xlink:href="#p" />
<use x="132" y="108" xlink:href="#p" />
<use x="136" y="108" xlink:href="#p" />
<use x="140" y="108" xlink:href="#p" />
<use x="144" y="108" xlink:href="#p" />
<use x="168" y="108" xlink:href="#p" />
<use x="184" y="108" xlink:href="#p" />
<use x="196" y="108" xlink:href="#p" />
<use x="12" y="112" xlink:href="#p" />
<use x="24" y="112" xlink:href="#p" />
<use x="28" y="112" xlink:href="#p" />
<use x="32" y="112" xlink:href="#p" />
<use x="36" y="112" xlink:href="#p" />
<use x="40" y="112" xlink:href="#p" />
<use x="44" y="112" xlink:href="#p" />
<use x="52" y="112" xlink:href="#p" />
<use x="56" y="112" xlink:href="#p" />
<use x="68" y="112" xlink:href="#p" />
<use x="76" y="112" xlink:href="#p" />
<use x="88" y="112" xlink:href="#p" />
<use x="92" y="112" xlink:href="#p" />
<use x="96" y="112" xlink:href="#p" />
<use x="100" y="112" xlink:href="#p" />
<use x="104" y="112" xlink:href="#p" />
<use x="108" y="112" xlink:href="#p" />
<use x="112" y="112" xlink:href="#p" />
<use x="124" y="112" xlink:href="#p" />
<use x="132" y="112" xlink:href="#p" />
<use x="136" y="112" xlink:href="#p" />
<use x="140" y="112" xlink:href="#p" />
<use x="144" y="112" xlink:href="#p" />
<use x="164" y="112" xlink:href="#p" />
<use x="168" y="112" xlink:href="#p" />
<use x="172" y="112" xlink:href="#p" />
<use x="176" y="112" xlink:href="#p" />
<use x="180" y="112" xlink:href="#p" />
<use x="184" y="112" xlink:href="#p" />
<use x="192" y="112" xlink:href="#p" />
<use x="196" y="112" xlink:href="#p" />
<use x="8" y="116" xlink:href="#p" />
<use x="20" y="116" xlink:href="#p" />
<use x="24" y="116" xlink:href="#p" />
<use x="28" y="116" xlink:href="#p" />
<use x="44" y="116" xlink:href="#p" />
<use x="48" y="116" xlink:href="#p" />
<use x="52" y="116" xlink:href="#p" />
<use x="56" y="116" xlink:href="#p" />
<use x="60" y="116" xlink:href="#p" />
<use x="84" y="116" xlink:href="#p" />
<use x="88" y="116" xlink:href="#p" />
<use x="100" y="116" xlink:href="#p" />
<use x="112" y="116" xlink:href="#p" />
<use x="116" y="116" xlink:href="#p" />
<use x="124" y="116" xlink:href="#p" />
<use x="132" y="116" xlink:href="#p" />
<use x="136" y="116" xlink:href="#p" />
<use x="144" y="116" xlink:href="#p" />
<use x="152" y="116" xlink:href="#p" />
<use x="164" y="116" xlink:href="#p" />
<use x="172" y="116" xlink:href="#p" />
<use x="176" y="116" xlink:href="#p" />
<use x="188" y="116" xlink:href="#p" />
<use x="192" y="116" xlink:href="#p" />
<use x="196" y="116" xlink:href="#p" />
<use x="16" y="120" xlink:href="#p" />
<use x="20" y="120" xlink:href="#p" />
<use x="24" y="120" xlink:href="#p" />
<use x="28" y="120" xlink:href="#p" />
<use x="32" y="120" xlink:href="#p" />
<use x="40" y="120" xlink:href="#p" />
<use x="56" y="120" xlink:href="#p" />
<use x="60" y="120" xlink:href="#p" />
<use x="64" y="120" xlink:href="#p" />
<use x="80" y="120" xlink:href="#p" />
<use x="84" y="120" xlink:href="#p" />
<use x="88" y="120" xlink:href="#p" />
<use x="96" y="120" xlink:href="#p" />
<use x="100" y="120" xlink:href="#p" />
<use x="120" y="120" xlink:href="#p" />
<use x="124" y="120" xlink:href="#p" />
<use x="128" y="120" xlink:href="#p" />
<use x="132" y="120" xlink:href="#p" />
<use x="136" y="120" xlink:href="#p" />
<use x="140" y="120" xlink:href="#p" />
<use x="148" y="120" xlink:href="#p" />
<use x="152" y="120" xlink:href="#p" />
<use x="164" y="120" xlink:href="#p" />
<use x="172" y="120" xlink:href="#p" />
<use x="180" y="120" xlink:href="#p" />
<use x="184" y="120" xlink:href="#p" />
<use x="188" y="120" xlink:href="#p" />
<use x="192" y="120" xlink:href="#p" />
<use x="196" y="120" xlink:href="#p" />
<use x="200" y="120" xlink:href="#p" />
<use x="12" y="124" xlink:href="#p" />
<use x="16" y="124" xlink:href="#p" />
<use x="20" y="124" xlink:href="#p" />
<use x="36" y="124" xlink:href="#p" />
<use x="44" y="124" xlink:href="#p" />
<use x="64" y="124" xlink:href="#p" />
<use x="68" y="124" xlink:href="#p" />
<use x="72" y="124" xlink:href="#p" />
<use x="76" y="124" xlink:href="#p" />
<use x="80" y="124" xlink:href="#p" />
<use x="92" y="124" xlink:href="#p" />
<use x="96" y="124" xlink:href="#p" />
<use x="100" y="124" xlink:href="#p" />
<use x="104" y="124" xlink:href="#p" />
<use x="108" y="124" xlink:href="#p" />
<use x="124" y="124" xlink:href="#p" />
<use x="128" y="124" xlink:href="#p" />
<use x="132" y="124" xlink:href="#p" />
<use x="148" y="124" xlink:href="#p" />
<use x="152" y="124" xlink:href="#p" />
<use x="160" y="124" xlink:href="#p" />
<use x="164" y="124" xlink:href="#p" />
<use x="176" y="124" xlink:href="#p" />
<use x="192" y="124" xlink:href="#p" />
<use x="200" y="124" xlink:href="#p" />
<use x="16" y="128" xlink:href="#p" />
<use x="32" y="128" xlink:href="#p" />
<use x="36" y="128" xlink:href="#p" />
<use x="40" y="128" xlink:href="#p" />
<use x="44" y="128" xlink:href="#p" />
<use x="60" y="128" xlink:href="#p" />
<use x="64" y="128" xlink:href="#p" />
<use x="68" y="128" xlink:href="#p" />
<use x="80" y="128" xlink:href="#p" />
<use x="88" y="128" xlink:href="#p" />
<use x="92" y="128" xlink:href="#p" />
<use x="100" y="128" xlink:href="#p" />
<use x="112" y="128" xlink:href="#p" />
<use x="124" y="128" xlink:href="#p" />
<use x="132" y="128" xlink:href="#p" />
<use x="136" y="128" xlink:href="#p" />
<use x="140" y="128" xlink:href="#p" />
<use x="148" y="128" xlink:href="#p" />
<use x="152" y="128" xlink:href="#p" />
<use x="156" y="128" xlink:href="#p" />
<use x="160" y="128" xlink:href="#p" />
<use x="164" y="128" xlink:href="#p" />
<use x="168" y="128" xlink:href="#p" />
<use x="176" y="128" xlink:href="#p" />
<use x="184" y="128" xlink:href="#p" />
<use x="188" y="128" xlink:href="#p" />
<use x="192" y="128" xlink:href="#p" />
<use x="16" y="132" xlink:href="#p" />
<use x="20" y="132" xlink:href="#p" />
<use x="44" y="132" xlink:href="#p" />
<use x="48" y="132" xlink:href="#p" />
<use x="56" y="132" xlink:href="#p" />
<use x="60" y="132" xlink:href="#p" />
<use x="76" y="132" xlink:href="#p" />
<use x="84" y="132" xlink:href="#p" />
<use x="88" y="132" xlink:href="#p" />
<use x="96" y="132" xlink:href="#p" />
<use x="100" y="132" xlink:href="#p" />
<use x="104" y="132" xlink:href="#p" />
<use x="108" y="132" xlink:href="#p" />
<use x="120" y="132" xlink:href="#p" />
<use x="124" y="132" xlink:href="#p" />
<use x="128" y="132" xlink:href="#p" />
<use x="136" y="132" xlink:href="#p" />
<use x="140" y="132" xlink:href="#p" />
<use x="148" y="132" xlink:href="#p" />
<use x="160" y="132" xlink:href="#p" />
<use x="172" y="132" xlink:href="#p" />
<use x="180" y="132" xlink:href="#p" />
<use x="184" y="132" xlink:href="#p" />
<use x="196" y="132" xlink:href="#p" />
<use x="200" y="132" xlink:href="#p" />
<use x="12" y="136" xlink:href="#p" />
<use x="16" y="136" xlink:href="#p" />
<use x="20" y="136" xlink:href="#p" />
<use x="32" y="136" xlink:href="#p" />
<use x="36" y="136" xlink:href="#p" />
<use x="40" y="136" xlink:href="#p" />
<use x="56" y="136" xlink:href="#p" />
<use x="60" y="136" xlink:href="#p" />
<use x="64" y="136" xlink:href="#p" />
<use x="72" y="136" xlink:href="#p" />
<use x="76" y="136" xlink:href="#p" />
<use x="80" y="136" xlink:href="#p" />
<use x="84" y="136" xlink:href="#p" />
<use x="88" y="136" xlink:href="#p" />
<use x="92" y="136" xlink:href="#p" />
<use x="96" y="136" xlink:href="#p" />
<use x="104" y="136" xlink:href="#p" />
<use x="108" y="136" xlink:href="#p" />
<use x="112" y="136" xlink:href="#p" />
<use x="116" y="136" xlink:href="#p" />
<use x="120" y="136" xlink:href="#p" />
<use x="144" y="136" xlink:href="#p" />
<use x="148" y="136" xlink:href="#p" />
<use x="156" y="136" xlink:href="#p" />
<use x="168" y="136" xlink:href="#p" />
<use x="172" y="136" xlink:href="#p" />
<use x="176" y="136" xlink:href="#p" />
<use x="200" y="136" xlink:href="#p" />
<use x="8" y="140" xlink:href="#p" />
<use x="12" y="140" xlink:href="#p" />
<use x="16" y="140" xlink:href="#p" />
<use x="28" y="140" xlink:href="#p" />
<use x="40" y="140" xlink:href="#p" />
<use x="44" y="140" xlink:href="#p" />
<use x="52" y="140" xlink:href="#p" />
<use x="56" y="140" xlink:href="#p" />
<use x="60" y="140" xlink:href="#p" />
<use x="68" y="140" xlink:href="#p" />
<use x="72" y="140" xlink:href="#p" />
<use x="84" y="140" xlink:href="#p" />
<use x="92" y="140" xlink:href="#p" />
<use x="108" y="140" xlink:href="#p" />
<use x="112" y="140" xlink:href="#p" />
<use x="120" y="140" xlink:href="#p" />
<use x="124" y="140" xlink:href="#p" />
<use x="132" y="140" xlink:href="#p" />
<use x="136" y="140" xlink:href="#p" />
<use x="140" y="140" xlink:href="#p" />
<use x="144" y="140" xlink:href="#p" />
<use x="172" y="140" xlink:href="#p" />
<use x="176" y="140" xlink:href="#p" />
<use x="184" y="140" xlink:href="#p" />
<use x="12" y="144" xlink:href="#p" />
<use x="28" y="144" xlink:href="#p" />
<use x="32" y="144" xlink:href="#p" />
<use x="40" y="144" xlink:href="#p" />
<use x="44" y="144" xlink:href="#p" />
<use x="60" y="144" xlink:href="#p" />
<use x="64" y="144" xlink:href="#p" />
<use x="72" y="144" xlink:href="#p" />
<use x="80" y="144" xlink:href="#p" />
<use x="88" y="144" xlink:href="#p" />
<use x="92" y="144" xlink:href="#p" />
<use x="100" y="144" xlink:href="#p" />
<use x="108" y="144" xlink:href="#p" />
<use x="120" y="144" xlink:href="#p" />
<use x="124" y="144" xlink:href="#p" />
<use x="128" y="144" xlink:href="#p" />
<use x="132" y="144" xlink:href="#p" />
<use x="144" y="144" xlink:href="#p" />
<use x="148" y="144" xlink:href="#p" />
<use x="160" y="144" xlink:href="#p" />
<use x="164" y="144" xlink:href="#p" />
<use x="172" y="144" xlink:href="#p" />
<use x="180" y="144" xlink:href="#p" />
<use x="188" y="144" xlink:href="#p" />
<use x="196" y="144" xlink:href="#p" />
<use x="12" y="148" xlink:href="#p" />
<use x="16" y="148" xlink:href="#p" />
<use x="28" y="148" xlink:href="#p" />
<use x="36" y="148" xlink:href="#p" />
<use x="40" y="148" xlink:href="#p" />
<use x="48" y="148" xlink:href="#p" />
<use x="64" y="148" xlink:href="#p" />
<use x="76" y="148" xlink:href="#p" />
<use x="80" y="148" xlink:href="#p" />
<use x="84" y="148" xlink:href="#p" />
<use x="88" y="148" xlink:href="#p" />
<use x="92" y="148" xlink:href="#p" />
<use x="96" y="148" xlink:href="#p" />
<use x="100" y="148" xlink:href="#p" />
<use x="108" y="148" xlink:href="#p" />
<use x="112" y="148" xlink:href="#p" />
<use x="116" y="148" xlink:href="#p" />
<use x="120" y="148" xlink:href="#p" />
<use x="124" y="148" xlink:href="#p" />
<use x="128" y="148" xlink:href="#p" />
<use x="132" y="148" xlink:href="#p" />
<use x="140" y="148" xlink:href="#p" />
<use x="144" y="148" xlink:href="#p" />
<use x="148" y="148" xlink:href="#p" />
<use x="152" y="148" xlink:href="#p" />
<use x="156" y="148" xlink:href="#p" />
<use x="164" y="148" xlink:href="#p" />
<use x="176" y="148" xlink:href="#p" />
<use x="180" y="148" xlink:href="#p" />
<use x="188" y="148" xlink:href="#p" />
<use x="192" y="148" xlink:href="#p" />
<use x="200" y="148" xlink:href="#p" />
<use x="20" y="152" xlink:href="#p" />
<use x="32" y="152" xlink:href="#p" />
<use x="36" y="152" xlink:href="#p" />
<use x="40" y="152" xlink:href="#p" />
<use x="44" y="152" xlink:href="#p" />
<use x="52" y="152" xlink:href="#p" />
<use x="56" y="152" xlink:href="#p" />
<use x="68" y="152" xlink:href="#p" />
<use x="76" y="152" xlink:href="#p" />
<use x="88" y="152" xlink:href="#p" />
<use x="92" y="152" xlink:href="#p" />
<use x="96" y="152" xlink:href="#p" />
<use x="104" y="152" xlink:href="#p" />
<use x="112" y="152" xlink:href="#p" />
<use x="116" y="152" xlink:href="#p" />
<use x="124" y="152" xlink:href="#p" />
<use x="128" y="152" xlink:href="#p" />
<use x="136" y="152" xlink:href="#p" />
<use x="148" y="152" xlink:href="#p" />
<use x="152" y="152" xlink:href="#p" />
<use x="156" y="152" xlink:href="#p" />
<use x="160" y="152" xlink:href="#p" />
<use x="164" y="152" xlink:href="#p" />
<use x="180" y="152" xlink:href="#p" />
<use x="196" y="152" xlink:href="#p" />
<use x="200" y="152" xlink:href="#p" />
<use x="8" y="156" xlink:href="#p" />
<use x="16" y="156" xlink:href="#p" />
<use x="20" y="156" xlink:href="#p" />
<use x="24" y="156" xlink:href="#p" />
<use x="36" y="156" xlink:href="#p" />
<use x="44" y="156" xlink:href="#p" />
<use x="48" y="156" xlink:href="#p" />
<use x="56" y="156" xlink:href="#p" />
<use x="60" y="156" xlink:href="#p" />
<use x="64" y="156" xlink:href="#p" />
<use x="80" y="156" xlink:href="#p" />
<use x="84" y="156" xlink:href="#p" />
<use x="88" y="156" xlink:href="#p" />
<use x="96" y="156" xlink:href="#p" />
<use x="100" y="156" xlink:href="#p" />
<use x="108" y="156" xlink:href="#p" />
<use x="120" y="156" xlink:href="#p" />
<use x="128" y="156" xlink:href="#p" />
<use x="140" y="156" xlink:href="#p" />
<use x="152" y="156" xlink:href="#p" />
<use x="160" y="156" xlink:href="#p" />
<use x="164" y="156" xlink:href="#p" />
<use x="168" y="156" xlink:href="#p" />
<use x="176" y="156" xlink:href="#p" />
<use x="184" y="156" xlink:href="#p" />
<use x="192" y="156" xlink:href="#p" />
<use x="196" y="156" xlink:href="#p" />
<use x="200" y="156" xlink:href="#p" />
<use x="12" y="160" xlink:href="#p" />
<use x="28" y="160" xlink:href="#p" />
<use x="32" y="160" xlink:href="#p" />
<use x="44" y="160" xlink:href="#p" />
<use x="48" y="160" xlink:href="#p" />
<use x="60" y="160" xlink:href="#p" />
<use x="64" y="160" xlink:href="#p" />
<use x="72" y="160" xlink:href="#p" />
<use x="80" y="160" xlink:href="#p" />
<use x="84" y="160" xlink:href="#p" />
<use x="92" y="160" xlink:href="#p" />
<use x="100" y="160" xlink:href="#p" />
<use x="104" y="160" xlink:href="#p" />
<use x="108" y="160" xlink:href="#p" />
<use x="124" y="160" xlink:href="#p" />
<use x="136" y="160" xlink:href="#p" />
<use x="140" y="160" xlink:href="#p" />
<use x="156" y="160" xlink:href="#p" />
<use x="160" y="160" xlink:href="#p" />
<use x="168" y="160" xlink:href="#p" />
<use x="172" y="160" xlink:href="#p" />
<use x="176" y="160" xlink:href="#p" />
<use x="192" y="160" xlink:href="#p" />
<use x="12" y="164" xlink:href="#p" />
<use x="16" y="164" xlink:href="#p" />
<use x="20" y="164" xlink:href="#p" />
<use x="36" y="164" xlink:href="#p" />
<use x="40" y="164" xlink:href="#p" />
<use x="52" y="164" xlink:href="#p" />
<use x="64" y="164" xlink:href="#p" />
<use x="68" y="164" xlink:href="#p" />
<use x="72" y="164" xlink:href="#p" />
<use x="76" y="164" xlink:href="#p" />
<use x="92" y="164" xlink:href="#p" />
<use x="96" y="164" xlink:href="#p" />
<use x="100" y="164" xlink:href="#p" />
<use x="108" y="164" xlink:href="#p" />
<use x="112" y="164" xlink:href="#p" />
<use x="116" y="164" xlink:href="#p" />
<use x="120" y="164" xlink:href="#p" />
<use x="128" y="164" xlink:href="#p" />
<use x="132" y="164" xlink:href="#p" />
<use x="136" y="164" xlink:href="#p" />
<use x="148" y="164" xlink:href="#p" />
<use x="156" y="164" xlink:href="#p" />
<use x="160" y="164" xlink:href="#p" />
<use x="172" y="164" xlink:href="#p" />
<use x="176" y="164" xlink:href="#p" />
<use x="184" y="164" xlink:href="#p" />
<use x="188" y="164" xlink:href="#p" />
<use x="196" y="164" xlink:href="#p" />
<use x="8" y="168" xlink:href="#p" />
<use x="12" y="168" xlink:href="#p" />
<use x="16" y="168" xlink:href="#p" />
<use x="32" y="168" xlink:href="#p" />
<use x="36" y="168" xlink:href="#p" />
<use x="48" y="168" xlink:href="#p" />
<use x="60" y="168" xlink:href="#p" />
<use x="80" y="168" xlink:href="#p" />
<use x="84" y="168" xlink:href="#p" />
<use x="88" y="168" xlink:href="#p" />
<use x="96" y="168" xlink:href="#p" />
<use x="100" y="168" xlink:href="#p" />
<use x="104" y="168" xlink:href="#p" />
<use x="108" y="168" xlink:href="#p" />
<use x="112" y="168" xlink:href="#p" />
<use x="120" y="168" xlink:href="#p" />
<use x="148" y="168" xlink:href="#p" />
<use x="156" y="168" xlink:href="#p" />
<use x="168" y="168" xlink:href="#p" />
<use x="172" y="168" xlink:href="#p" />
<use x="176" y="168" xlink:href="#p" />
<use x="180" y="168" xlink:href="#p" />
<use x="184" y="168" xlink:href="#p" />
<use x="188" y="168" xlink:href="#p" />
<use x="192" y="168" xlink:href="#p" />
<use x="196" y="168" xlink:href="#p" />
<use x="200" y="168" xlink:href="#p" />
<use x="40" y="172" xlink:href="#p" />
<use x="52" y="172" xlink:href="#p" />
<use x="60" y="172" xlink:href="#p" />
<use x="64" y="172" xlink:href="#p" />
<use x="84" y="172" xlink:href="#p" />
<use x="88" y="172" xlink:href="#p" />
<use x="96" y="172" xlink:href="#p" />
<use x="112" y="172" xlink:href="#p" />
<use x="132" y="172" xlink:href="#p" />
<use x="140" y="172" xlink:href="#p" />
<use x="144" y="172" xlink:href="#p" />
<use x="152" y="172" xlink:href="#p" />
<use x="160" y="172" xlink:href="#p" />
<use x="168" y="172" xlink:href="#p" />
<use x="184" y="172" xlink:href="#p" />
<use x="192" y="172" xlink:href="#p" />
<use x="196" y="172" xlink:href="#p" />
<use x="200" y="172" xlink:href="#p" />
<use x="8" y="176" xlink:href="#p" />
<use x="12" y="176" xlink:href="#p" />
<use x="16" y="176" xlink:href="#p" />
<use x="20" y="176" xlink:href="#p" />
<use x="24" y="176" xlink:href="#p" />
<use x="28" y="176" xlink:href="#p" />
<use x="32" y="176" xlink:href="#p" />
<use x="48" y="176" xlink:href="#p" />
<use x="56" y="176" xlink:href="#p" />
<use x="72" y="176" xlink:href="#p" />
<use x="76" y="176" xlink:href="#p" />
<use x="84" y="176" xlink:href="#p" />
<use x="96" y="176" xlink:href="#p" />
<use x="104" y="176" xlink:href="#p" />
<use x="112" y="176" xlink:href="#p" />
<use x="120" y="176" xlink:href="#p" />
<use x="124" y="176" xlink:href="#p" />
<use x="128" y="176" xlink:href="#p" />
<use x="136" y="176" xlink:href="#p" />
<use x="140" y="176" xlink:href="#p" />
<use x="144" y="176" xlink:href="#p" />
<use x="156" y="176" xlink:href="#p" />
<use x="164" y="176" xlink:href="#p" />
<use x="168" y="176" xlink:href="#p" />
<use x="176" y="176" xlink:href="#p" />
<use x="184" y="176" xlink:href="#p" />
<use x="188" y="176" xlink:href="#p" />
<use x="200" y="176" xlink:href="#p" />
<use x="8" y="180" xlink:href="#p" />
<use x="32" y="180" xlink:href="#p" />
<use x="40" y="180" xlink:href="#p" />
<use x="44" y="180" xlink:href="#p" />
<use x="56" y="180" xlink:href="#p" />
<use x="60" y="180" xlink:href="#p" />
<use x="84" y="180" xlink:href="#p" />
<use x="88" y="180" xlink:href="#p" />
<use x="92" y="180" xlink:href="#p" />
<use x="96" y="180" xlink:href="#p" />
<use x="112" y="180" xlink:href="#p" />
<use x="116" y="180" xlink:href="#p" />
<use x="128" y="180" xlink:href="#p" />
<use x="144" y="180" xlink:href="#p" />
<use x="152" y="180" xlink:href="#p" />
<use x="164" y="180" xlink:href="#p" />
<use x="168" y="180" xlink:href="#p" />
<use x="184" y="180" xlink:href="#p" />
<use x="192" y="180" xlink:href="#p" />
<use x="8" y="184" xlink:href="#p" />
<use x="16" y="184" xlink:href="#p" />
<use x="20" y="184" xlink:href="#p" />
<use x="24" y="184" xlink:href="#p" />
<use x="32" y="184" xlink:href="#p" />
<use x="40" y="184" xlink:href="#p" />
<use x="44" y="184" xlink:href="#p" />
<use x="56" y="184" xlink:href="#p" />
<use x="60" y="184" xlink:href="#p" />
<use x="64" y="184" xlink:href="#p" />
<use x="80" y="184" xlink:href="#p" />
<use x="84" y="184" xlink:href="#p" />
<use x="88" y="184" xlink:href="#p" />
<use x="96" y="184" xlink:href="#p" />
<use x="100" y="184" xlink:href="#p" />
<use x="104" y="184" xlink:href="#p" />
<use x="108" y="184" xlink:href="#p" />
<use x="112" y="184" xlink:href="#p" />
<use x="120" y="184" xlink:href="#p" />
<use x="128" y="184" xlink:href="#p" />
<use x="132" y="184" xlink:href="#p" />
<use x="136" y="184" xlink:href="#p" />
<use x="140" y="184" xlink:href="#p" />
<use x="144" y="184" xlink:href="#p" />
<use x="148" y="184" xlink:href="#p" />
<use x="152" y="184" xlink:href="#p" />
<use x="156" y="184" xlink:href="#p" />
<use x="168" y="184" xlink:href="#p" />
<use x="172" y="184" xlink:href="#p" />
<use x="176" y="184" xlink:href="#p" />
<use x="180" y="184" xlink:href="#p" />
<use x="184" y="184" xlink:href="#p" />
<use x="188" y="184" xlink:href="#p" />
<use x="8" y="188" xlink:href="#p" />
<use x="16" y="188" xlink:href="#p" />
<use x="20" y="188" xlink:href="#p" />
<use x="24" y="188" xlink:href="#p" />
<use x="32" y="188" xlink:href="#p" />
<use x="44" y="188" xlink:href="#p" />
<use x="52" y="188" xlink:href="#p" />
<use x="64" y="188" xlink:href="#p" />
<use x="68" y="188" xlink:href="#p" />
<use x="72" y="188" xlink:href="#p" />
<use x="76" y="188" xlink:href="#p" />
<use x="80" y="188" xlink:href="#p" />
<use x="92" y="188" xlink:href="#p" />
<use x="104" y="188" xlink:href="#p" />
<use x="120" y="188" xlink:href="#p" />
<use x="132" y="188" xlink:href="#p" />
<use x="136" y="188" xlink:href="#p" />
<use x="140" y="188" xlink:href="#p" />
<use x="144" y="188" xlink:href="#p" />
<use x="148" y="188" xlink:href="#p" />
<use x="152" y="188" xlink:href="#p" />
<use x="160" y="188" xlink:href="#p" />
<use x="164" y="188" xlink:href="#p" />
<use x="180" y="188" xlink:href="#p" />
<use x="192" y="188" xlink:href="#p" />
<use x="8" y="192" xlink:href="#p" />
<use x="16" y="192" xlink:href="#p" />
<use x="20" y="192" xlink:href="#p" />
<use x="24" y="192" xlink:href="#p" />
<use x="32" y="192" xlink:href="#p" />
<use x="52" y="192" xlink:href="#p" />
<use x="56" y="192" xlink:href="#p" />
<use x="60" y="192" xlink:href="#p" />
<use x="68" y="192" xlink:href="#p" />
<use x="80" y="192" xlink:href="#p" />
<use x="88" y="192" xlink:href="#p" />
<use x="96" y="192" xlink:href="#p" />
<use x="100" y="192" xlink:href="#p" />
<use x="112" y="192" xlink:href="#p" />
<use x="124" y="192" xlink:href="#p" />
<use x="128" y="192" xlink:href="#p" />
<use x="140" y="192" xlink:href="#p" />
<use x="148" y="192" xlink:href="#p" />
<use x="160" y="192" xlink:href="#p" />
<use x="172" y="192" xlink:href="#p" />
<use x="176" y="192" xlink:href="#p" />
<use x="180" y="192" xlink:href="#p" />
<use x="196" y="192" xlink:href="#p" />
<use x="8" y="196" xlink:href="#p" />
<use x="32" y="196" xlink:href="#p" />
<use x="40" y="196" xlink:href="#p" />
<use x="44" y="196" xlink:href="#p" />
<use x="56" y="196" xlink:href="#p" />
<use x="84" y="196" xlink:href="#p" />
<use x="88" y="196" xlink:href="#p" />
<use x="92" y="196" xlink:href="#p" />
<use x="96" y="196" xlink:href="#p" />
<use x="100" y="196" xlink:href="#p" />
<use x="108" y="196" xlink:href="#p" />
<use x="112" y="196" xlink:href="#p" />
<use x="116" y="196" xlink:href="#p" />
<use x="124" y="196" xlink:href="#p" />
<use x="140" y="196" xlink:href="#p" />
<use x="148" y="196" xlink:href="#p" />
<use x="156" y="196" xlink:href="#p" />
<use x="160" y="196" xlink:href="#p" />
<use x="164" y="196" xlink:href="#p" />
<use x="168" y="196" xlink:href="#p" />
<use x="172" y="196" xlink:href="#p" />
<use x="180" y="196" xlink:href="#p" />
<use x="184" y="196" xlink:href="#p" />
<use x="188" y="196" xlink:href="#p" />
<use x="196" y="196" xlink:href="#p" />
<use x="8" y="200" xlink:href="#p" />
<use x="12" y="200" xlink:href="#p" />
<use x="16" y="200" xlink:href="#p" />
<use x="20" y="200" xlink:href="#p" />
<use x="24" y="200" xlink:href="#p" />
<use x="28" y="200" xlink:href="#p" />
<use x="32" y="200" xlink:href="#p" />
<use x="40" y="200" xlink:href="#p" />
<use x="56" y="200" xlink:href="#p" />
<use x="60" y="200" xlink:href="#p" />
<use x="64" y="200" xlink:href="#p" />
<use x="84" y="200" xlink:href="#p" />
<use x="88" y="200" xlink:href="#p" />
<use x="104" y="200" xlink:href="#p" />
<use x="112" y="200" xlink:href="#p" />
<use x="120" y="200" xlink:href="#p" />
<use x="148" y="200" xlink:href="#p" />
<use x="156" y="200" xlink:href="#p" />
<use x="164" y="200" xlink:href="#p" />
<use x="168" y="200" xlink:href="#p" />
<use x="180" y="200" xlink:href="#p" />
<use x="184" y="200" xlink:href="#p" />
<use x="196" y="200" xlink:href="#p" />
<use x="200" y="200" xlink:href="#p" />
</g>
</svg>