<?xml version="1.0" encoding="utf-8"?>
<!DOCTYPE svg PUBLIC "-//W3C//DTD SVG 1.0//EN" "http://www.w3.org/TR/2001/REC-SVG-20010904/DTD/svg10.dtd">
<svg xmlns="http://www.w3.org/2000/svg" xml:space="preserve" xmlns:xlink="http://www.w3.org/1999/xlink" width="196" height="196" viewBox="0 0 196 196">
<desc></desc>
<rect width="196" height="196" fill="#ffffff" cx="0" cy="0" />
<defs>
<rect id="p" width="4" height="4" />
</defs>
<g fill="#000000">
<use x="8" y="8" xlink:href="#p" />
<use x="12" y="8" xlink:href="#p" />
<use x="16" y="8" xlink:href="#p" />
<use x="20" y="8" xlink:href="#p" />
<use x="24" y="8" xlink:href="#p" />
<use x="28" y="8" xlink:href="#p" />
<use x="32" y="8" xlink:href="#p" />
<use x="52" y="8" xlink:href="#p" />
<use x="68" y="8" xlink:href="#p" />
<use x="80" y="8" xlink:href="#p" />
<use x="84" y="8" xlink:href="#p" />
<use x="100" y="8" xlink:href="#p" />
<use x="104" y="8" xlink:href="#p" />
<use x="112" y="8" xlink:href="#p" />
<use x="116" y="8" xlink:href="#p" />
<use x="120" y="8" xlink:href="#p" />
<use x="124" y="8" xlink:href="#p" />
<use x="132" y="8" xlink:href="#p" />
<use x="140" y="8" xlink:href="#p" />
<use x="152" y="8" xlink:href="#p" />
<use x="160" y="8" xlink:href="#p" />
<use x="164" y="8" xlink:href="#p" />
<use x="168" y="8" xlink:href="#p" />
<use x="172" y="8" xlink:href="#p" />
<use x="176" y="8" xlink:href="#p" />
<use x="180" y="8" xlink:href="#p" />
<use x="184" y="8" xlink:href="#p" />
<use x="8" y="12" xlink:href="#p" />
<use x="32" y="12" xlink:href="#p" />
<use x="48" y="12" xlink:href="#p" />
<use x="56" y="12" xlink:href="#p" />
<use x="64" y="12" xlink:href="#p" />
<use x="68" y="12" xlink:href="#p" />
<use x="80" y="12" xlink:href="#p" />
<use x="84" y="12" xlink:href="#p" />
<use x="88" y="12" xlink:href="#p" />
<use x="92" y="12" xlink:href="#p" />
<use x="96" y="12" xlink:href="#p" />
<use x="104" y="12" xlink:href="#p" />
<use x="108" y="12" xlink:href="#p" />
<use x="116" y="12" xlink:href="#p" />
<use x="120" y="12" xlink:href="#p" />
<use x="124" y="12" xlink:href="#p" />
<use x="128" y="12" xlink:href="#p" />
<use x="148" y="12" xlink:href="#p" />
<use x="160" y="12" xlink:href="#p" />
<use x="184" y="12" xlink:href="#p" />
<use x="8" y="16" xlink:href="#p" />
<use x="16" y="16" xlink:href="#p" />
<use x="20" y="16" xlink:href="#p" />
<use x="24" y="16" xlink:href="#p" />
<use x="32" y="16" xlink:href="#p" />
<use x="40" y="16" xlink:href="#p" />
<use x="44" y="16" xlink:href="#p" />
<use x="56" y="16" xlink:href="#p" />
<use x="60" y="16" xlink:href="#p" />
<use x="64" y="16" xlink:href="#p" />
<use x="72" y="16" xlink:href="#p" />
<use x="80" y="16" xlink:href="#p" />
<use x="88" y="16" xlink:href="#p" />
<use x="92" y="16" xlink:href="#p" />
<use x="100" y="16" xlink:href="#p" />
<use x="108" y="16" xlink:href="#p" />
<use x="112" y="16" xlink:href="#p" />
<use x="116" y="16" xlink:href="#p" />
<use x="120" y="16" xlink:href="#p" />
<use x="124" y="16" xlink:href="#p" />
<use x="128" y="16" xlink:href="#p" />
<use x="136" y="16" xlink:href="#p" />
<use x="140" y="16" xlink:href="#p" />
<use x="148" y="16" xlink:href="#p" />
<use x="160" y="16" xlink:href="#p" />
<use x="168" y="16" xlink:href="#p" />
<use x="172" y="16" xlink:href="#p" />
<use x="176" y="16" xlink:href="#p" />
<use x="184" y="16" xlink:href="#p" />
<use x="8" y="20" xlink:href="#p" />
<use x="16" y="20" xlink:href="#p" />
<use x="20" y="20" xlink:href="#p" />
<use x="24" y="20" xlink:href="#p" />
<use x="32" y="20" xlink:href="#p" />
<use x="44" y="20" xlink:href="#p" />
<use x="60" y="20" xlink:href="#p" />
<use x="64" y="20" xlink:href="#p" />
<use x="68" y="20" xlink:href="#p" />
<use x="72" y="20" xlink:href="#p" />
<use x="76" y="20" xlink:href="#p" />
<use x="80" y="20" xlink:href="#p" />
<use x="84" y="20" xlink:href="#p" />
<use x="88" y="20" xlink:href="#p" />
<use x="96" y="20" xlink:href="#p" />
<use x="100" y="20" xlink:href="#p" />
<use x="108" y="20" xlink:href="#p" />
<use x="112" y="20" xlink:href="#p" />
<use x="120" y="20" xlink:href="#p" />
<use x="124" y="20" xlink:href="#p" />
<use x="128" y="20" xlink:href="#p" />
<use x="136" y="20" xlink:href="#p" />
<use x="140" y="20" xlink:href="#p" />
<use x="148" y="20" xlink:href="#p" />
<use x="152" y="20" xlink:href="#p" />
<use x="160" y="20" xlink:href="#p" />
<use x="168" y="20" xlink:href="#p" />
<use x="172" y="20" xlink:href="#p" />
<use x="176" y="20" xlink:href="#p" />
<use x="184" y="20" xlink:href="#p" />
<use x="8" y="24" xlink:href="#p" />
<use x="16" y="24" xlink:href="#p" />
<use x="20" y="24" xlink:href="#p" />
<use x="24" y="24" xlink:href="#p" />
<use x="32" y="24" xlink:href="#p" />
<use x="52" y="24" xlink:href="#p" />
<use x="56" y="24" xlink:href="#p" />
<use x="64" y="24" xlink:href="#p" />
<use x="68" y="24" xlink:href="#p" />
<use x="88" y="24" xlink:href="#p" />
<use x="92" y="24" xlink:href="#p" />
<use x="96" y="24" xlink:href="#p" />
<use x="100" y="24" xlink:href="#p" />
<use x="104" y="24" xlink:href="#p" />
<use x="108" y="24" xlink:href="#p" />
<use x="124" y="24" xlink:href="#p" />
<use x="144" y="24" xlink:href="#p" />
<use x="148" y="24" xlink:href="#p" />
<use x="152" y="24" xlink:href="#p" />
<use x="160" y="24" xlink:href="#p" />
<use x="168" y="24" xlink:href="#p" />
<use x="172" y="24" xlink:href="#p" />
<use x="176" y="24" xlink:href="#p" />
<use x="184" y="24" xlink:href="#p" />
<use x="8" y="28" xlink:href="#p" />
<use x="32" y="28" xlink:href="#p" />
<use x="44" y="28" xlink:href="#p" />
<use x="48" y="28" xlink:href="#p" />
<use x="52" y="28" xlink:href="#p" />
<use x="56" y="28" xlink:href="#p" />
<use x="60" y="28" xlink:href="#p" />
<use x="76" y="28" xlink:href="#p" />
<use x="80" y="28" xlink:href="#p" />
<use x="84" y="28" xlink:href="#p" />
<use x="88" y="28" xlink:href="#p" />
<use x="104" y="28" xlink:href="#p" />
<use x="108" y="28" xlink:href="#p" />
<use x="124" y="28" xlink:href="#p" />
<use x="132" y="28" xlink:href="#p" />
<use x="140" y="28" xlink:href="#p" />
<use x="160" y="28" xlink:href="#p" />
<use x="184" y="28" xlink:href="#p" />
<use x="8" y="32" xlink:href="#p" />
<use x="12" y="32" xlink:href="#p" />
<use x="16" y="32" xlink:href="#p" />
<use x="20" y="32" xlink:href="#p" />
<use x="24" y="32" xlink:href="#p" />
<use x="28" y="32" xlink:href="#p" />
<use x="32" y="32" xlink:href="#p" />
<use x="40" y="32" xlink:href="#p" />
<use x="48" y="32" xlink:href="#p" />
<use x="56" y="32" xlink:href="#p" />
<use x="64" y="32" xlink:href="#p" />
<use x="72" y="32" xlink:href="#p" />
<use x="80" y="32" xlink:href="#p" />
<use x="88" y="32" xlink:href="#p" />
<use x="96" y="32" xlink:href="#p" />
<use x="104" y="32" xlink:href="#p" />
<use x="112" y="32" xlink:href="#p" />
<use x="120" y="32" xlink:href="#p" />
<use x="128" y="32" xlink:href="#p" />
<use x="136" y="32" xlink:href="#p" />
<use x="144" y="32" xlink:href="#p" />
<use x="152" y="32" xlink:href="#p" />
<use x="160" y="32" xlink:href="#p" />
<use x="164" y="32" xlink:href="#p" />
<use x="168" y="32" xlink:href="#p" />
<use x="172" y="32" xlink:href="#p" />
<use x="176" y="32" xlink:href="#p" />
<use x="180" y="32" xlink:href="#p" />
<use x="184" y="32" xlink:href="#p" />
<use x="40" y="36" xlink:href="#p" />
<use x="48" y="36" xlink:href="#p" />
<use x="60" y="36" xlink:href="#p" />
<use x="76" y="36" xlink:href="#p" />
<use x="80" y="36" xlink:href="#p" />
<use x="88" y="36" xlink:href="#p" />
<use x="104" y="36" xlink:href="#p" />
<use x="112" y="36" xlink:href="#p" />
<use x="116" y="36" xlink:href="#p" />
<use x="124" y="36" xlink:href="#p" />
<use x="132" y="36" xlink:href="#p" />
<use x="136" y="36" xlink:href="#p" />
<use x="140" y="36" xlink:href="#p" />
<use x="148" y="36" xlink:href="#p" />
<use x="152" y="36" xlink:href="#p" />
<use x="8" y="40" xlink:href="#p" />
<use x="12" y="40" xlink:href="#p" />
<use x="16" y="40" xlink:href="#p" />
<use x="24" y="40" xlink:href="#p" />
<use x="28" y="40" xlink:href="#p" />
<use x="32" y="40" xlink:href="#p" />
<use x="36" y="40" xlink:href="#p" />
<use x="40" y="40" xlink:href="#p" />
<use x="48" y="40" xlink:href="#p" />
<use x="56" y="40" xlink:href="#p" />
<use x="60" y="40" xlink:href="#p" />
<use x="64" y="40" xlink:href="#p" />
<use x="68" y="40" xlink:href="#p" />
<use x="72" y="40" xlink:href="#p" />
<use x="76" y="40" xlink:href="#p" />
<use x="88" y="40" xlink:href="#p" />
<use x="92" y="40" xlink:href="#p" />
<use x="96" y="40" xlink:href="#p" />
<use x="100" y="40" xlink:href="#p" />
<use x="104" y="40" xlink:href="#p" />
<use x="112" y="40" xlink:href="#p" />
<use x="116" y="40" xlink:href="#p" />
<use x="120" y="40" xlink:href="#p" />
<use x="128" y="40" xlink:href="#p" />
<use x="132" y="40" xlink:href="#p" />
<use x="136" y="40" xlink:href="#p" />
<use x="140" y="40" xlink:href="#p" />
<use x="156" y="40" xlink:href="#p" />
<use x="160" y="40" xlink:href="#p" />
<use x="176" y="40" xlink:href="#p" />
<use x="8" y="44" xlink:href="#p" />
<use x="12" y="44" xlink:href="#p" />
<use x="16" y="44" xlink:href="#p" />
<use x="20" y="44" xlink:href="#p" />
<use x="36" y="44" xlink:href="#p" />
<use x="40" y="44" xlink:href="#p" />
<use x="52" y="44" xlink:href="#p" />
<use x="64" y="44" xlink:href="#p" />
<use x="72" y="44" xlink:href="#p" />
<use x="76" y="44" xlink:href="#p" />
<use x="80" y="44" xlink:href="#p" />
<use x="88" y="44" xlink:href="#p" />
<use x="96" y="44" xlink:href="#p" />
<use x="100" y="44" xlink:href="#p" />
<use x="108" y="44" xlink:href="#p" />
<use x="112" y="44" xlink:href="#p" />
<use x="124" y="44" xlink:href="#p" />
<use x="132" y="44" xlink:href="#p" />
<use x="164" y="44" xlink:href="#p" />
<use x="168" y="44" xlink:href="#p" />
<use x="176" y="44" xlink:href="#p" />
<use x="180" y="44" xlink:href="#p" />
<use x="184" y="44" xlink:href="#p" />
<use x="12" y="48" xlink:href="#p" />
<use x="32" y="48" xlink:href="#p" />
<use x="48" y="48" xlink:href="#p" />
<use x="52" y="48" xlink:href="#p" />
<use x="56" y="48" xlink:href="#p" />
<use x="60" y="48" xlink:href="#p" />
<use x="72" y="48" xlink:href="#p" />
<use x="76" y="48" xlink:href="#p" />
<use x="84" y="48" xlink:href="#p" />
<use x="88" y="48" xlink:href="#p" />
<use x="92" y="48" xlink:href="#p" />
<use x="100" y="48" xlink:href="#p" />
<use x="120" y="48" xlink:href="#p" />
<use x="128" y="48" xlink:href="#p" />
<use x="136" y="48" xlink:href="#p" />
<use x="148" y="48" xlink:href="#p" />
<use x="164" y="48" xlink:href="#p" />
<use x="168" y="48" xlink:href="#p" />
<use x="184" y="48" xlink:href="#p" />
<use x="12" y="52" xlink:href="#p" />
<use x="16" y="52" xlink:href="#p" />
<use x="20" y="52" xlink:href="#p" />
<use x="24" y="52" xlink:href="#p" />
<use x="28" y="52" xlink:href="#p" />
<use x="44" y="52" xlink:href="#p" />
<use x="52" y="52" xlink:href="#p" />
<use x="68" y="52" xlink:href="#p" />
<use x="88" y="52" xlink:href="#p" />
<use x="92" y="52" xlink:href="#p" />
<use x="100" y="52" xlink:href="#p" />
<use x="108" y="52" xlink:href="#p" />
<use x="112" y="52" xlink:href="#p" />
<use x="116" y="52" xlink:href="#p" />
<use x="124" y="52" xlink:href="#p" />
<use x="128" y="52" xlink:href="#p" />
<use x="140" y="52" xlink:href="#p" />
<use x="144" y="52" xlink:href="#p" />
<use x="152" y="52" xlink:href="#p" />
<use x="164" y="52" xlink:href="#p" />
<use x="168" y="52" xlink:href="#p" />
<use x="172" y="52" xlink:href="#p" />
<use x="180" y="52" xlink:href="#p" />
<use x="184" y="52" xlink:href="#p" />
<use x="8" y="56" xlink:href="#p" />
<use x="16" y="56" xlink:href="#p" />
<use x="20" y="56" xlink:href="#p" />
<use x="24" y="56" xlink:href="#p" />
<use x="32" y="56" xlink:href="#p" />
<use x="48" y="56" xlink:href="#p" />
<use x="56" y="56" xlink:href="#p" />
<use x="60" y="56" xlink:href="#p" />
<use x="76" y="56" xlink:href="#p" />
<use x="88" y="56" xlink:href="#p" />
<use x="92" y="56" xlink:href="#p" />
<use x="96" y="56" xlink:href="#p" />
<use x="116" y="56" xlink:href="#p" />
<use x="132" y="56" xlink:href="#p" />
<use x="144" y="56" xlink:href="#p" />
<use x="148" y="56" xlink:href="#p" />
<use x="160" y="56" xlink:href="#p" />
<use x="168" y="56" xlink:href="#p" />
<use x="176" y="56" xlink:href="#p" />
<use x="180" y="56" xlink:href="#p" />
<use x="184" y="56" xlink:href="#p" />
<use x="8" y="60" xlink:href="#p" />
<use x="16" y="60" xlink:href="#p" />
<use x="20" y="60" xlink:href="#p" />
<use x="24" y="60" xlink:href="#p" />
<use x="36" y="60" xlink:href="#p" />
<use x="48" y="60" xlink:href="#p" />
<use x="56" y="60" xlink:href="#p" />
<use x="60" y="60" xlink:href="#p" />
<use x="64" y="60" xlink:href="#p" />
<use x="72" y="60" xlink:href="#p" />
<use x="76" y="60" xlink:href="#p" />
<use x="88" y="60" xlink:href="#p" />
<use x="100" y="60" xlink:href="#p" />
<use x="112" y="60" xlink:href="#p" />
<use x="116" y="60" xlink:href="#p" />
<use x="120" y="60" xlink:href="#p" />
<use x="132" y="60" xlink:href="#p" />
<use x="136" y="60" xlink:href="#p" />
<use x="148" y="60" xlink:href="#p" />
<use x="152" y="60" xlink:href="#p" />
<use x="156" y="60" xlink:href="#p" />
<use x="168" y="60" xlink:href="#p" />
<use x="172" y="60" xlink:href="#p" />
<use x="180" y="60" xlink:href="#p" />
<use x="184" y="60" xlink:href="#p" />
<use x="16" y="64" xlink:href="#p" />
<use x="20" y="64" xlink:href="#p" />
<use x="32" y="64" xlink:href="#p" />
<use x="44" y="64" xlink:href="#p" />
<use x="48" y="64" xlink:href="#p" />
<use x="52" y="64" xlink:href="#p" />
<use x="60" y="64" xlink:href="#p" />
<use x="68" y="64" xlink:href="#p" />
<use x="72" y="64" xlink:href="#p" />
<use x="76" y="64" xlink:href="#p" />
<use x="88" y="64" xlink:href="#p" />
<use x="96" y="64" xlink:href="#p" />
<use x="100" y="64" xlink:href="#p" />
<use x="108" y="64" xlink:href="#p" />
<use x="112" y="64" xlink:href="#p" />
<use x="120" y="64" xlink:href="#p" />
<use x="124" y="64" xlink:href="#p" />
<use x="128" y="64" xlink:href="#p" />
<use x="132" y="64" xlink:href="#p" />
<use x="148" y="64" xlink:href="#p" />
<use x="152" y="64" xlink:href="#p" />
<use x="156" y="64" xlink:href="#p" />
<use x="164" y="64" xlink:href="#p" />
<use x="168" y="64" xlink:href="#p" />
<use x="176" y="64" xlink:href="#p" />
<use x="180" y="64" xlink:href="#p" />
<use x="184" y="64" xlink:href="#p" />
<use x="12" y="68" xlink:href="#p" />
<use x="20" y="68" xlink:href="#p" />
<use x="44" y="68" xlink:href="#p" />
<use x="60" y="68" xlink:href="#p" />
<use x="64" y="68" xlink:href="#p" />
<use x="76" y="68" xlink:href="#p" />
<use x="80" y="68" xlink:href="#p" />
<use x="84" y="68" xlink:href="#p" />
<use x="88" y="68" xlink:href="#p" />
<use x="96" y="68" xlink:href="#p" />
<use x="100" y="68" xlink:href="#p" />
<use x="112" y="68" xlink:href="#p" />
<use x="116" y="68" xlink:href="#p" />
<use x="132" y="68" xlink:href="#p" />
<use x="136" y="68" xlink:href="#p" />
<use x="140" y="68" xlink:href="#p" />
<use x="144" y="68" xlink:href="#p" />
<use x="148" y="68" xlink:href="#p" />
<use x="152" y="68" xlink:href="#p" />
<use x="156" y="68" xlink:href="#p" />
<use x="160" y="68" xlink:href="#p" />
<use x="168" y="68" xlink:href="#p" />
<use x="172" y="68" xlink:href="#p" />
<use x="180" y="68" xlink:href="#p" />
<use x="184" y="68" xlink:href="#p" />
<use x="20" y="72" xlink:href="#p" />
<use x="28" y="72" xlink:href="#p" />
<use x="32" y="72" xlink:href="#p" />
<use x="44" y="72" xlink:href="#p" />
<use x="48" y="72" xlink:href="#p" />
<use x="56" y="72" xlink:href="#p" />
<use x="60" y="72" xlink:href="#p" />
<use x="84" y="72" xlink:href="#p" />
<use x="88" y="72" xlink:href="#p" />
<use x="104" y="72" xlink:href="#p" />
<use x="116" y="72" xlink:href="#p" />
<use x="136" y="72" xlink:href="#p" />
<use x="140" y="72" xlink:href="#p" />
<use x="144" y="72" xlink:href="#p" />
<use x="156" y="72" xlink:href="#p" />
<use x="160" y="72" xlink:href="#p" />
<use x="164" y="72" xlink:href="#p" />
<use x="168" y="72" xlink:href="#p" />
<use x="180" y="72" xlink:href="#p" />
<use x="8" y="76" xlink:href="#p" />
<use x="12" y="76" xlink:href="#p" />
<use x="16" y="76" xlink:href="#p" />
<use x="20" y="76" xlink:href="#p" />
<use x="28" y="76" xlink:href="#p" />
<use x="40" y="76" xlink:href="#p" />
<use x="48" y="76" xlink:href="#p" />
<use x="56" y="76" xlink:href="#p" />
<use x="72" y="76" xlink:href="#p" />
<use x="76" y="76" xlink:href="#p" />
<use x="80" y="76" xlink:href="#p" />
<use x="84" y="76" xlink:href="#p" />
<use x="88" y="76" xlink:href="#p" />
<use x="96" y="76" xlink:href="#p" />
<use x="100" y="76" xlink:href="#p" />
<use x="108" y="76" xlink:href="#p" />
<use x="112" y="76" xlink:href="#p" />
<use x="116" y="76" xlink:href="#p" />
<use x="124" y="76" xlink:href="#p" />
<use x="128" y="76" xlink:href="#p" />
<use x="164" y="76" xlink:href="#p" />
<use x="168" y="76" xlink:href="#p" />
<use x="176" y="76" xlink:href="#p" />
<use x="8" y="80" xlink:href="#p" />
<use x="16" y="80" xlink:href="#p" />
<use x="28" y="80" xlink:href="#p" />
<use x="32" y="80" xlink:href="#p" />
<use x="36" y="80" xlink:href="#p" />
<use x="40" y="80" xlink:href="#p" />
<use x="44" y="80" xlink:href="#p" />
<use x="48" y="80" xlink:href="#p" />
<use x="56" y="80" xlink:href="#p" />
<use x="60" y="80" xlink:href="#p" />
<use x="72" y="80" xlink:href="#p" />
<use x="76" y="80" xlink:href="#p" />
<use x="80" y="80" xlink:href="#p" />
<use x="96" y="80" xlink:href="#p" />
<use x="100" y="80" xlink:href="#p" />
<use x="120" y="80" xlink:href="#p" />
<use x="124" y="80" xlink:href="#p" />
<use x="132" y="80" xlink:href="#p" />
<use x="136" y="80" xlink:href="#p" />
<use x="148" y="80" xlink:href="#p" />
<use x="168" y="80" xlink:href="#p" />
<use x="180" y="80" xlink:href="#p" />
<use x="184" y="80" xlink:href="#p" />
<use x="8" y="84" xlink:href="#p" />
<use x="12" y="84" xlink:href="#p" />
<use x="16" y="84" xlink:href="#p" />
<use x="20" y="84" xlink:href="#p" />
<use x="24" y="84" xlink:href="#p" />
<use x="44" y="84" xlink:href="#p" />
<use x="60" y="84" xlink:href="#p" />
<use x="72" y="84" xlink:href="#p" />
<use x="80" y="84" xlink:href="#p" />
<use x="88" y="84" xlink:href="#p" />
<use x="92" y="84" xlink:href="#p" />
<use x="100" y="84" xlink:href="#p" />
<use x="112" y="84" xlink:href="#p" />
<use x="116" y="84" xlink:href="#p" />
<use x="128" y="84" xlink:href="#p" />
<use x="144" y="84" xlink:href="#p" />
<use x="148" y="84" xlink:href="#p" />
<use x="156" y="84" xlink:href="#p" />
<use x="180" y="84" xlink:href="#p" />
<use x="12" y="88" xlink:href="#p" />
<use x="20" y="88" xlink:href="#p" />
<use x="24" y="88" xlink:href="#p" />
<use x="28" y="88" xlink:href="#p" />
<use x="32" y="88" xlink:href="#p" />
<use x="36" y="88" xlink:href="#p" />
<use x="40" y="88" xlink:href="#p" />
<use x="48" y="88" xlink:href="#p" />
<use x="52" y="88" xlink:href="#p" />
<use x="56" y="88" xlink:href="#p" />
<use x="60" y="88" xlink:href="#p" />
<use x="64" y="88" xlink:href="#p" />
<use x="72" y="88" xlink:href="#p" />
<use x="76" y="88" xlink:href="#p" />
<use x="80" y="88" xlink:href="#p" />
<use x="88" y="88" xlink:href="#p" />
<use x="92" y="88" xlink:href="#p" />
<use x="96" y="88" xlink:href="#p" />
<use x="100" y="88" xlink:href="#p" />
<use x="104" y="88" xlink:href="#p" />
<use x="112" y="88" xlink:href="#p" />
<use x="116" y="88" xlink:href="#p" />
<use x="132" y="88" xlink:href="#p" />
<use x="144" y="88" xlink:href="#p" />
<use x="152" y="88" xlink:href="#p" />
<use x="156" y="88" xlink:href="#p" />
<use x="160" y="88" xlink:href="#p" />
<use x="164" y="88" xlink:href="#p" />
<use x="168" y="88" xlink:href="#p" />
<use x="176" y="88" xlink:href="#p" />
<use x="180" y="88" xlink:href="#p" />
<use x="184" y="88" xlink:href="#p" />
<use x="12" y="92" xlink:href="#p" />
<use x="24" y="92" xlink:href="#p" />
<use x="40" y="92" xlink:href="#p" />
<use x="44" y="92" xlink:href="#p" />
<use x="48" y="92" xlink:href="#p" />
<use x="56" y="92" xlink:href="#p" />
<use x="60" y="92" xlink:href="#p" />
<use x="64" y="92" xlink:href="#p" />
<use x="76" y="92" xlink:href="#p" />
<use x="88" y="92" xlink:href="#p" />
<use x="104" y="92" xlink:href="#p" />
<use x="112" y="92" xlink:href="#p" />
<use x="116" y="92" xlink:href="#p" />
<use x="128" y="92" xlink:href="#p" />
<use x="132" y="92" xlink:href="#p" />
<use x="144" y="92" xlink:href="#p" />
<use x="148" y="92" xlink:href="#p" />
<use x="152" y="92" xlink:href="#p" />
<use x="168" y="92" xlink:href="#p" />
<use x="172" y="92" xlink:href="#p" />
<use x="180" y="92" xlink:href="#p" />
<use x="184" y="92" xlink:href="#p" />
<use x="8" y="96" xlink:href="#p" />
<use x="16" y="96" xlink:href="#p" />
<use x="24" y="96" xlink:href="#p" />
<use x="32" y="96" xlink:href="#p" />
<use x="40" y="96" xlink:href="#p" />
<use x="44" y="96" xlink:href="#p" />
<use x="48" y="96" xlink:href="#p" />
<use x="64" y="96" xlink:href="#p" />
<use x="68" y="96" xlink:href="#p" />
<use x="80" y="96" xlink:href="#p" />
<use x="84" y="96" xlink:href="#p" />
<use x="88" y="96" xlink:href="#p" />
<use x="96" y="96" xlink:href="#p" />
<use x="104" y="96" xlink:href="#p" />
<use x="112" y="96" xlink:href="#p" />
<use x="116" y="96" xlink:href="#p" />
<use x="120" y="96" xlink:href="#p" />
<use x="132" y="96" xlink:href="#p" />
<use x="144" y="96" xlink:href="#p" />
<use x="148" y="96" xlink:href="#p" />
<use x="152" y="96" xlink:href="#p" />
<use x="160" y="96" xlink:href="#p" />
<use x="168" y="96" xlink:href="#p" />
<use x="172" y="96" xlink:href="#p" />
<use x="8" y="100" xlink:href="#p" />
<use x="12" y="100" xlink:href="#p" />
<use x="20" y="100" xlink:href="#p" />
<use x="24" y="100" xlink:href="#p" />
<use x="40" y="100" xlink:href="#p" />
<use x="44" y="100" xlink:href="#p" />
<use x="48" y="100" xlink:href="#p" />
<use x="52" y="100" xlink:href="#p" />
<use x="56" y="100" xlink:href="#p" />
<use x="60" y="100" xlink:href="#p" />
<use x="64" y="100" xlink:href="#p" />
<use x="76" y="100" xlink:href="#p" />
<use x="80" y="100" xlink:href="#p" />
<use x="88" y="100" xlink:href="#p" />
<use x="104" y="100" xlink:href="#p" />
<use x="112" y="100" xlink:href="#p" />
<use x="116" y="100" xlink:href="#p" />
<use x="128" y="100" xlink:href="#p" />
<use x="132" y="100" xlink:href="#p" />
<use x="136" y="100" xlink:href="#p" />
<use x="140" y="100" xlink:href="#p" />
<use x="152" y="100" xlink:href="#p" />
<use x="168" y="100" xlink:href="#p" />
<use x="172" y="100" xlink:href="#p" />
<use x="180" y="100" xlink:href="#p" />
<use x="8" y="104" xlink:href="#p" />
<use x="12" y="104" xlink:href="#p" />
<use x="20" y="104" xlink:href="#p" />
<use x="24" y="104" xlink:href="#p" />
<use x="28" y="104" xlink:href="#p" />
<use x="32" y="104" xlink:href="#p" />
<use x="36" y="104" xlink:href="#p" />
<use x="40" y="104" xlink:href="#p" />
<use x="52" y="104" xlink:href="#p" />
<use x="56" y="104" xlink:href="#p" />
<use x="60" y="104" xlink:href="#p" />
<use x="68" y="104" xlink:href="#p" />
<use x="72" y="104" xlink:href="#p" />
<use x="88" y="104" xlink:href="#p" />
<use x="92" y="104" xlink:href="#p" />
<use x="96" y="104" xlink:href="#p" />
<use x="100" y="104" xlink:href="#p" />
<use x="104" y="104" xlink:href="#p" />
<use x="132" y="104" xlink:href="#p" />
<use x="136" y="104" xlink:href="#p" />
<use x="140" y="104" xlink:href="#p" />
<use x="144" y="104" xlink:href="#p" />
<use x="152" y="104" xlink:href="#p" />
<use x="156" y="104" xlink:href="#p" />
<use x="160" y="104" xlink:href="#p" />
<use x="164" y="104" xlink:href="#p" />
<use x="168" y="104" xlink:href="#p" />
<use x="172" y="104" xlink:href="#p" />
<use x="28" y="108" xlink:href="#p" />
<use x="36" y="108" xlink:href="#p" />
<use x="52" y="108" xlink:href="#p" />
<use x="60" y="108" xlink:href="#p" />
<use x="76" y="108" xlink:href="#p" />
<use x="80" y="108" xlink:href="#p" />
<use x="84" y="108" xlink:href="#p" />
<use x="88" y="108" xlink:href="#p" />
<use x="104" y="108" xlink:href="#p" />
<use x="116" y="108" xlink:href="#p" />
<use x="124" y="108" xlink:href="#p" />
<use x="132" y="108" xlink:href="#p" />
<use x="148" y="108" xlink:href="#p" />
<use x="156" y="108" xlink:href="#p" />
<use x="160" y="108" xlink:href="#p" />
<use x="168" y="108" xlink:href="#p" />
<use x="176" y="108" xlink:href="#p" />
<use x="180" y="108" xlink:href="#p" />
<use x="8" y="112" xlink:href="#p" />
<use x="12" y="112" xlink:href="#p" />
<use x="20" y="112" xlink:href="#p" />
<use x="24" y="112" xlink:href="#p" />
<use x="32" y="112" xlink:href="#p" />
<use x="36" y="112" xlink:href="#p" />
<use x="48" y="112" xlink:href="#p" />
<use x="52" y="112" xlink:href="#p" />
<use x="56" y="112" xlink:href="#p" />
<use x="60" y="112" xlink:href="#p" />
<use x="76" y="112" xlink:href="#p" />
<use x="80" y="112" xlink:href="#p" />
<use x="92" y="112" xlink:href="#p" />
<use x="104" y="112" xlink:href="#p" />
<use x="112" y="112" xlink:href="#p" />
<use x="120" y="112" xlink:href="#p" />
<use x="124" y="112" xlink:href="#p" />
<use x="132" y="112" xlink:href="#p" />
<use x="136" y="112" xlink:href="#p" />
<use x="148" y="112" xlink:href="#p" />
<use x="160" y="112" xlink:href="#p" />
<use x="164" y="112" xlink:href="#p" />
<use x="168" y="112" xlink:href="#p" />
<use x="172" y="112" xlink:href="#p" />
<use x="176" y="112" xlink:href="#p" />
<use x="180" y="112" xlink:href="#p" />
<use x="184" y="112" xlink:href="#p" />
<use x="8" y="116" xlink:href="#p" />
<use x="20" y="116" xlink:href="#p" />
<use x="28" y="116" xlink:href="#p" />
<use x="36" y="116" xlink:href="#p" />
<use x="44" y="116" xlink:href="#p" />
<use x="52" y="116" xlink:href="#p" />
<use x="60" y="116" xlink:href="#p" />
<use x="68" y="116" xlink:href="#p" />
<use x="72" y="116" xlink:href="#p" />
<use x="76" y="116" xlink:href="#p" />
<use x="84" y="116" xlink:href="#p" />
<use x="92" y="116" xlink:href="#p" />
<use x="100" y="116" xlink:href="#p" />
<use x="108" y="116" xlink:href="#p" />
<use x="112" y="116" xlink:href="#p" />
<use x="116" y="116" xlink:href="#p" />
<use x="128" y="116" xlink:href="#p" />
<use x="132" y="116" xlink:href="#p" />
<use x="136" y="116" xlink:href="#p" />
<use x="140" y="116" xlink:href="#p" />
<use x="144" y="116" xlink:href="#p" />
<use x="152" y="116" xlink:href="#p" />
<use x="156" y="116" xlink:href="#p" />
<use x="164" y="116" xlink:href="#p" />
<use x="168" y="116" xlink:href="#p" />
<use x="172" y="116" xlink:href="#p" />
<use x="180" y="116" xlink:href="#p" />
<use x="184" y="116" xlink:href="#p" />
<use x="12" y="120" xlink:href="#p" />
<use x="16" y="120" xlink:href="#p" />
<use x="32" y="120" xlink:href="#p" />
<use x="36" y="120" xlink:href="#p" />
<use x="40" y="120" xlink:href="#p" />
<use x="48" y="120" xlink:href="#p" />
<use x="64" y="120" xlink:href="#p" />
<use x="72" y="120" xlink:href="#p" />
<use x="80" y="120" xlink:href="#p" />
<use x="92" y="120" xlink:href="#p" />
<use x="104" y="120" xlink:href="#p" />
<use x="112" y="120" xlink:href="#p" />
<use x="116" y="120" xlink:href="#p" />
<use x="128" y="120" xlink:href="#p" />
<use x="152" y="120" xlink:href="#p" />
<use x="160" y="120" xlink:href="#p" />
<use x="164" y="120" xlink:href="#p" />
<use x="184" y="120" xlink:href="#p" />
<use x="8" y="124" xlink:href="#p" />
<use x="12" y="124" xlink:href="#p" />
<use x="24" y="124" xlink:href="#p" />
<use x="28" y="124" xlink:href="#p" />
<use x="40" y="124" xlink:href="#p" />
<use x="44" y="124" xlink:href="#p" />
<use x="48" y="124" xlink:href="#p" />
<use x="60" y="124" xlink:href="#p" />
<use x="64" y="124" xlink:href="#p" />
<use x="68" y="124" xlink:href="#p" />
<use x="76" y="124" xlink:href="#p" />
<use x="84" y="124" xlink:href="#p" />
<use x="88" y="124" xlink:href="#p" />
<use x="104" y="124" xlink:href="#p" />
<use x="116" y="124" xlink:href="#p" />
<use x="120" y="124" xlink:href="#p" />
<use x="128" y="124" xlink:href="#p" />
<use x="132" y="124" xlink:href="#p" />
<use x="144" y="124" xlink:href="#p" />
<use x="148" y="124" xlink:href="#p" />
<use x="160" y="124" xlink:href="#p" />
<use x="180" y="124" xlink:href="#p" />
<use x="184" y="124" xlink:href="#p" />
<use x="16" y="128" xlink:href="#p" />
<use x="20" y="128" xlink:href="#p" />
<use x="32" y="128" xlink:href="#p" />
<use x="40" y="128" xlink:href="#p" />
<use x="44" y="128" xlink:href="#p" />
<use x="76" y="128" xlink:href="#p" />
<use x="80" y="128" xlink:href="#p" />
<use x="88" y="128" xlink:href="#p" />
<use x="96" y="128" xlink:href="#p" />
<use x="100" y="128" xlink:href="#p" />
<use x="104" y="128" xlink:href="#p" />
<use x="108" y="128" xlink:href="#p" />
<use x="112" y="128" xlink:href="#p" />
<use x="116" y="128" xlink:href="#p" />
<use x="124" y="128" xlink:href="#p" />
<use x="128" y="128" xlink:href="#p" />
<use x="144" y="128" xlink:href="#p" />
<use x="156" y="128" xlink:href="#p" />
<use x="160" y="128" xlink:href="#p" />
<use x="164" y="128" xlink:href="#p" />
<use x="168" y="128" xlink:href="#p" />
<use x="176" y="128" xlink:href="#p" />
<use x="180" y="128" xlink:href="#p" />
<use x="12" y="132" xlink:href="#p" />
<use x="20" y="132" xlink:href="#p" />
<use x="36" y="132" xlink:href="#p" />
<use x="40" y="132" xlink:href="#p" />
<use x="56" y="132" xlink:href="#p" />
<use x="60" y="132" xlink:href="#p" />
<use x="72" y="132" xlink:href="#p" />
<use x="76" y="132" xlink:href="#p" />
<use x="88" y="132" xlink:href="#p" />
<use x="92" y="132" xlink:href="#p" />
<use x="104" y="132" xlink:href="#p" />
<use x="112" y="132" xlink:href="#p" />
<use x="116" y="132" xlink:href="#p" />
<use x="128" y="132" xlink:href="#p" />
<use x="136" y="132" xlink:href="#p" />
<use x="144" y="132" xlink:href="#p" />
<use x="156" y="132" xlink:href="#p" />
<use x="160" y="132" xlink:href="#p" />
<use x="172" y="132" xlink:href="#p" />
<use x="8" y="136" xlink:href="#p" />
<use x="12" y="136" xlink:href="#p" />
<use x="20" y="136" xlink:href="#p" />
<use x="32" y="136" xlink:href="#p" />
<use x="36" y="136" xlink:href="#p" />
<use x="40" y="136" xlink:href="#p" />
<use x="44" y="136" xlink:href="#p" />
<use x="48" y="136" xlink:href="#p" />
<use x="56" y="136" xlink:href="#p" />
<use x="60" y="136" xlink:href="#p" />
<use x="64" y="136" xlink:href="#p" />
<use x="72" y="136" xlink:href="#p" />
<use x="88" y="136" xlink:href="#p" />
<use x="96" y="136" xlink:href="#p" />
<use x="112" y="136" xlink:href="#p" />
<use x="116" y="136" xlink:href="#p" />
<use x="128" y="136" xlink:href="#p" />
<use x="132" y="136" xlink:href="#p" />
<use x="136" y="136" xlink:href="#p" />
<use x="144" y="136" xlink:href="#p" />
<use x="152" y="136" xlink:href="#p" />
<use x="176" y="136" xlink:href="#p" />
<use x="180" y="136" xlink:href="#p" />
<use x="184" y="136" xlink:href="#p" />
<use x="8" y="140" xlink:href="#p" />
<use x="12" y="140" xlink:href="#p" />
<use x="28" y="140" xlink:href="#p" />
<use x="36" y="140" xlink:href="#p" />
<use x="40" y="140" xlink:href="#p" />
<use x="56" y="140" xlink:href="#p" />
<use x="64" y="140" xlink:href="#p" />
<use x="72" y="140" xlink:href="#p" />
<use x="76" y="140" xlink:href="#p" />
<use x="84" y="140" xlink:href="#p" />
<use x="88" y="140" xlink:href="#p" />
<use x="92" y="140" xlink:href="#p" />
<use x="100" y="140" xlink:href="#p" />
<use x="104" y="140" xlink:href="#p" />
<use x="108" y="140" xlink:href="#p" />
<use x="112" y="140" xlink:href="#p" />
<use x="116" y="140" xlink:href="#p" />
<use x="140" y="140" xlink:href="#p" />
<use x="152" y="140" xlink:href="#p" />
<use x="156" y="140" xlink:href="#p" />
<use x="168" y="140" xlink:href="#p" />
<use x="176" y="140" xlink:href="#p" />
<use x="24" y="144" xlink:href="#p" />
<use x="32" y="144" xlink:href="#p" />
<use x="36" y="144" xlink:href="#p" />
<use x="40" y="144" xlink:href="#p" />
<use x="48" y="144" xlink:href="#p" />
<use x="60" y="144" xlink:href="#p" />
<use x="72" y="144" xlink:href="#p" />
<use x="76" y="144" xlink:href="#p" />
<use x="84" y="144" xlink:href="#p" />
<use x="92" y="144" xlink:href="#p" />
<use x="100" y="144" xlink:href="#p" />
<use x="120" y="144" xlink:href="#p" />
<use x="136" y="144" xlink:href="#p" />
<use x="144" y="144" xlink:href="#p" />
<use x="148" y="144" xlink:href="#p" />
<use x="152" y="144" xlink:href="#p" />
<use x="164" y="144" xlink:href="#p" />
<use x="180" y="144" xlink:href="#p" />
<use x="184" y="144" xlink:href="#p" />
<use x="12" y="148" xlink:href="#p" />
<use x="16" y="148" xlink:href="#p" />
<use x="20" y="148" xlink:href="#p" />
<use x="24" y="148" xlink:href="#p" />
<use x="36" y="148" xlink:href="#p" />
<use x="44" y="148" xlink:href="#p" />
<use x="56" y="148" xlink:href="#p" />
<use x="68" y="148" xlink:href="#p" />
<use x="72" y="148" xlink:href="#p" />
<use x="92" y="148" xlink:href="#p" />
<use x="96" y="148" xlink:href="#p" />
<use x="104" y="148" xlink:href="#p" />
<use x="112" y="148" xlink:href="#p" />
<use x="124" y="148" xlink:href="#p" />
<use x="132" y="148" xlink:href="#p" />
<use x="156" y="148" xlink:href="#p" />
<use x="168" y="148" xlink:href="#p" />
<use x="172" y="148" xlink:href="#p" />
<use x="176" y="148" xlink:href="#p" />
<use x="184" y="148" xlink:href="#p" />
<use x="8" y="152" xlink:href="#p" />
<use x="20" y="152" xlink:href="#p" />
<use x="24" y="152" xlink:href="#p" />
<use x="32" y="152" xlink:href="#p" />
<use x="40" y="152" xlink:href="#p" />
<use x="72" y="152" xlink:href="#p" />
<use x="80" y="152" xlink:href="#p" />
<use x="88" y="152" xlink:href="#p" />
<use x="92" y="152" xlink:href="#p" />
<use x="96" y="152" xlink:href="#p" />
<use x="100" y="152" xlink:href="#p" />
<use x="104" y="152" xlink:href="#p" />
<use x="116" y="152" xlink:href="#p" />
<use x="120" y="152" xlink:href="#p" />
<use x="132" y="152" xlink:href="#p" />
<use x="152" y="152" xlink:href="#p" />
<use x="156" y="152" xlink:href="#p" />
<use x="160" y="152" xlink:href="#p" />
<use x="164" y="152" xlink:href="#p" />
<use x="168" y="152" xlink:href="#p" />
<use x="176" y="152" xlink:href="#p" />
<use x="40" y="156" xlink:href="#p" />
<use x="44" y="156" xlink:href="#p" />
<use x="48" y="156" xlink:href="#p" />
<use x="56" y="156" xlink:href="#p" />
<use x="60" y="156" xlink:href="#p" />
<use x="68" y="156" xlink:href="#p" />
<use x="72" y="156" xlink:href="#p" />
<use x="76" y="156" xlink:href="#p" />
<use x="84" y="156" xlink:href="#p" />
<use x="88" y="156" xlink:href="#p" />
<use x="104" y="156" xlink:href="#p" />
<use x="108" y="156" xlink:href="#p" />
<use x="112" y="156" xlink:href="#p" />
<use x="116" y="156" xlink:href="#p" />
<use x="120" y="156" xlink:href="#p" />
<use x="128" y="156" xlink:href="#p" />
<use x="132" y="156" xlink:href="#p" />
<use x="144" y="156" xlink:href="#p" />
<use x="148" y="156" xlink:href="#p" />
<use x="152" y="156" xlink:href="#p" />
<use x="168" y="156" xlink:href="#p" />
<use x="172" y="156" xlink:href="#p" />
<use x="176" y="156" xlink:href="#p" />
<use x="180" y="156" xlink:href="#p" />
<use x="8" y="160" xlink:href="#p" />
<use x="12" y="160" xlink:href="#p" />
<use x="16" y="160" xlink:href="#p" />
<use x="20" y="160" xlink:href="#p" />
<use x="24" y="160" xlink:href="#p" />
<use x="28" y="160" xlink:href="#p" />
<use x="32" y="160" xlink:href="#p" />
<use x="40" y="160" xlink:href="#p" />
<use x="44" y="160" xlink:href="#p" />
<use x="52" y="160" xlink:href="#p" />
<use x="56" y="160" xlink:href="#p" />
<use x="76" y="160" xlink:href="#p" />
<use x="80" y="160" xlink:href="#p" />
<use x="84" y="160" xlink:href="#p" />
<use x="88" y="160" xlink:href="#p" />
<use x="96" y="160" xlink:href="#p" />
<use x="104" y="160" xlink:href="#p" />
<use x="116" y="160" xlink:href="#p" />
<use x="128" y="160" xlink:href="#p" />
<use x="132" y="160" xlink:href="#p" />
<use x="140" y="160" xlink:href="#p" />
<use x="144" y="160" xlink:href="#p" />
<use x="148" y="160" xlink:href="#p" />
<use x="152" y="160" xlink:href="#p" />
<use x="160" y="160" xlink:href="#p" />
<use x="168" y="160" xlink:href="#p" />
<use x="8" y="164" xlink:href="#p" />
<use x="32" y="164" xlink:href="#p" />
<use x="40" y="164" xlink:href="#p" />
<use x="56" y="164" xlink:href="#p" />
<use x="60" y="164" xlink:href="#p" />
<use x="64" y="164" xlink:href="#p" />
<use x="72" y="164" xlink:href="#p" />
<use x="76" y="164" xlink:href="#p" />
<use x="80" y="164" xlink:href="#p" />
<use x="88" y="164" xlink:href="#p" />
<use x="104" y="164" xlink:href="#p" />
<use x="116" y="164" xlink:href="#p" />
<use x="120" y="164" xlink:href="#p" />
<use x="128" y="164" xlink:href="#p" />
<use x="132" y="164" xlink:href="#p" />
<use x="136" y="164" xlink:href="#p" />
<use x="140" y="164" xlink:href="#p" />
<use x="144" y="164" xlink:href="#p" />
<use x="148" y="164" xlink:href="#p" />
<use x="152" y="164" xlink:href="#p" />
<use x="168" y="164" xlink:href="#p" />
<use x="180" y="164" xlink:href="#p" />
<use x="184" y="164" xlink:href="#p" />
<use x="8" y="168" xlink:href="#p" />
<use x="16" y="168" xlink:href="#p" />
<use x="20" y="168" xlink:href="#p" />
<use x="24" y="168" xlink:href="#p" />
<use x="32" y="168" xlink:href="#p" />
<use x="40" y="168" xlink:href="#p" />
<use x="56" y="168" xlink:href="#p" />
<use x="60" y="168" xlink:href="#p" />
<use x="64" y="168" xlink:href="#p" />
<use x="72" y="168" xlink:href="#p" />
<use x="76" y="168" xlink:href="#p" />
<use x="84" y="168" xlink:href="#p" />
<use x="88" y="168" xlink:href="#p" />
<use x="92" y="168" xlink:href="#p" />
<use x="96" y="168" xlink:href="#p" />
<use x="100" y="168" xlink:href="#p" />
<use x="104" y="168" xlink:href="#p" />
<use x="112" y="168" xlink:href="#p" />
<use x="124" y="168" xlink:href="#p" />
<use x="132" y="168" xlink:href="#p" />
<use x="136" y="168" xlink:href="#p" />
<use x="148" y="168" xlink:href="#p" />
<use x="152" y="168" xlink:href="#p" />
<use x="156" y="168" xlink:href="#p" />
<use x="160" y="168" xlink:href="#p" />
<use x="164" y="168" xlink:href="#p" />
<use x="168" y="168" xlink:href="#p" />
<use x="172" y="168" xlink:href="#p" />
<use x="176" y="168" xlink:href="#p" />
<use x="180" y="168" xlink:href="#p" />
<use x="8" y="172" xlink:href="#p" />
<use x="16" y="172" xlink:href="#p" />
<use x="20" y="172" xlink:href="#p" />
<use x="24" y="172" xlink:href="#p" />
<use x="32" y="172" xlink:href="#p" />
<use x="44" y="172" xlink:href="#p" />
<use x="52" y="172" xlink:href="#p" />
<use x="60" y="172" xlink:href="#p" />
<use x="64" y="172" xlink:href="#p" />
<use x="72" y="172" xlink:href="#p" />
<use x="84" y="172" xlink:href="#p" />
<use x="88" y="172" xlink:href="#p" />
<use x="96" y="172" xlink:href="#p" />
<use x="100" y="172" xlink:href="#p" />
<use x="104" y="172" xlink:href="#p" />
<use x="108" y="172" xlink:href="#p" />
<use x="124" y="172" xlink:href="#p" />
<use x="128" y="172" xlink:href="#p" />
<use x="132" y="172" xlink:href="#p" />
<use x="148" y="172" xlink:href="#p" />
<use x="152" y="172" xlink:href="#p" />
<use x="164" y="172" xlink:href="#p" />
<use x="168" y="172" xlink:href="#p" />
<use x="8" y="176" xlink:href="#p" />
<use x="16" y="176" xlink:href="#p" />
<use x="20" y="176" xlink:href="#p" />
<use x="24" y="176" xlink:href="#p" />
<use x="32" y="176" xlink:href="#p" />
<use x="40" y="176" xlink:href="#p" />
<use x="44" y="176" xlink:href="#p" />
<use x="56" y="176" xlink:href="#p" />
<use x="60" y="176" xlink:href="#p" />
<use x="76" y="176" xlink:href="#p" />
<use x="112" y="176" xlink:href="#p" />
<use x="116" y="176" xlink:href="#p" />
<use x="120" y="176" xlink:href="#p" />
<use x="128" y="176" xlink:href="#p" />
<use x="132" y="176" xlink:href="#p" />
<use x="136" y="176" xlink:href="#p" />
<use x="144" y="176" xlink:href="#p" />
<use x="148" y="176" xlink:href="#p" />
<use x="152" y="176" xlink:href="#p" />
<use x="156" y="176" xlink:href="#p" />
<use x="160" y="176" xlink:href="#p" />
<use x="164" y="176" xlink:href="#p" />
<use x="168" y="176" xlink:href="#p" />
<use x="176" y="176" xlink:href="#p" />
<use x="184" y="176" xlink:href="#p" />
<use x="8" y="180" xlink:href="#p" />
<use x="32" y="180" xlink:href="#p" />
<use x="40" y="180" xlink:href="#p" />
<use x="52" y="180" xlink:href="#p" />
<use x="56" y="180" xlink:href="#p" />
<use x="72" y="180" xlink:href="#p" />
<use x="76" y="180" xlink:href="#p" />
<use x="80" y="180" xlink:href="#p" />
<use x="84" y="180" xlink:href="#p" />
<use x="92" y="180" xlink:href="#p" />
<use x="100" y="180" xlink:href="#p" />
<use x="116" y="180" xlink:href="#p" />
<use x="120" y="180" xlink:href="#p" />
<use x="124" y="180" xlink:href="#p" />
<use x="128" y="180" xlink:href="#p" />
<use x="144" y="180" xlink:href="#p" />
<use x="148" y="180" xlink:href="#p" />
<use x="152" y="180" xlink:href="#p" />
<use x="156" y="180" xlink:href="#p" />
<use x="168" y="180" xlink:href="#p" />
<use x="172" y="180" xlink:href="#p" />
<use x="180" y="180" xlink:href="#p" />
<use x="8" y="184" xlink:href="#p" />
<use x="12" y="184" xlink:href="#p" />
<use x="16" y="184" xlink:href="#p" />
<use x="20" y="184" xlink:href="#p" />
<use x="24" y="184" xlink:href="#p" />
<use x="28" y="184" xlink:href="#p" />
<use x="32" y="184" xlink:href="#p" />
<use x="40" y="184" xlink:href="#p" />
<use x="44" y="184" xlink:href="#p" />
<use x="48" y="184" xlink:href="#p" />
<use x="56" y="184" xlink:href="#p" />
<use x="64" y="184" xlink:href="#p" />
<use x="72" y="184" xlink:href="#p" />
<use x="96" y="184" xlink:href="#p" />
<use x="100" y="184" xlink:href="#p" />
<use x="112" y="184" xlink:href="#p" />
<use x="116" y="184" xlink:href="#p" />
<use x="132" y="184" xlink:href="#p" />
<use x="148" y="184" xlink:href="#p" />
<use x="156" y="184" xlink:href="#p" />
<use x="168" y="184" xlink:href="#p" />
<use x="176" y="184" xlink:href="#p" />
<use x="180" y="184" xlink:href="#p" />
<use x="184" y="184" xlink:href="#p" />
</g>
</svg>