<svg width="640" height="420" viewBox="0 0 640 420" fill="none" xmlns="http://www.w3.org/2000/svg">
  <rect width="640" height="420" rx="28" fill="url(#bg)"/>
  <rect x="30" y="32" width="580" height="82" rx="22" fill="#11182D" stroke="#283250"/>
  <rect x="30" y="134" width="278" height="254" rx="22" fill="#11182D" stroke="#283250"/>
  <rect x="332" y="134" width="278" height="120" rx="22" fill="url(#card1)"/>
  <rect x="332" y="268" width="278" height="120" rx="22" fill="url(#card2)"/>
  <circle cx="84" cy="73" r="22" fill="#635BFF"/>
  <rect x="120" y="58" width="132" height="14" rx="7" fill="#6C76A2"/>
  <rect x="120" y="82" width="94" height="12" rx="6" fill="#566285"/>
  <rect x="58" y="168" width="220" height="18" rx="9" fill="#6A61FF"/>
  <rect x="58" y="204" width="204" height="14" rx="7" fill="#6C76A2"/>
  <rect x="58" y="230" width="184" height="14" rx="7" fill="#566285"/>
  <rect x="58" y="276" width="220" height="78" rx="18" fill="#171F37"/>
  <defs>
    <linearGradient id="bg" x1="46" y1="26" x2="580" y2="390" gradientUnits="userSpaceOnUse">
      <stop stop-color="#171D39"/>
      <stop offset="1" stop-color="#09101D"/>
    </linearGradient>
    <linearGradient id="card1" x1="332" y1="134" x2="610" y2="254" gradientUnits="userSpaceOnUse">
      <stop stop-color="#40E1BB"/>
      <stop offset="1" stop-color="#2E63F3"/>
    </linearGradient>
    <linearGradient id="card2" x1="332" y1="268" x2="610" y2="388" gradientUnits="userSpaceOnUse">
      <stop stop-color="#FF9B69"/>
      <stop offset="1" stop-color="#635BFF"/>
    </linearGradient>
  </defs>
</svg>
