<svg width="220" height="220" viewBox="0 0 220 220" fill="none" xmlns="http://www.w3.org/2000/svg">
  <rect width="220" height="220" rx="110" fill="#1E2645"/>
  <circle cx="110" cy="110" r="106" stroke="url(#ring)" stroke-width="8"/>
  <circle cx="110" cy="88" r="38" fill="url(#skin)"/>
  <path d="M69 175C73 143 89 126 110 126C131 126 147 143 151 175V186H69V175Z" fill="url(#shirt)"/>
  <path d="M78 90C79 61 95 46 110 46C125 46 141 61 142 90C133 81 122 78 110 78C98 78 87 81 78 90Z" fill="#0B1428"/>
  <rect x="80" y="86" width="60" height="24" rx="12" fill="#10192E" fill-opacity="0.8"/>
  <circle cx="94" cy="98" r="12" stroke="#D8E2FF" stroke-width="4"/>
  <circle cx="126" cy="98" r="12" stroke="#D8E2FF" stroke-width="4"/>
  <rect x="106" y="96" width="8" height="4" rx="2" fill="#D8E2FF"/>
  <path d="M98 119C103 123 117 123 122 119" stroke="#5B3B30" stroke-width="4" stroke-linecap="round"/>
  <defs>
    <linearGradient id="ring" x1="25" y1="18" x2="193" y2="204" gradientUnits="userSpaceOnUse">
      <stop stop-color="#6E66FF"/>
      <stop offset="1" stop-color="#34C9FF"/>
    </linearGradient>
    <linearGradient id="skin" x1="110" y1="50" x2="110" y2="126" gradientUnits="userSpaceOnUse">
      <stop stop-color="#D79C73"/>
      <stop offset="1" stop-color="#AE6D46"/>
    </linearGradient>
    <linearGradient id="shirt" x1="69" y1="126" x2="151" y2="186" gradientUnits="userSpaceOnUse">
      <stop stop-color="#29B9D8"/>
      <stop offset="1" stop-color="#2660FF"/>
    </linearGradient>
  </defs>
</svg>
